<svg width="199" height="106" viewBox="0 0 199 106" fill="none" xmlns="http://www.w3.org/2000/svg">
<path d="M57.031 49.8859C56.7994 50.107 56.6929 50.4268 56.7457 50.7404L57.5408 55.0751C57.6079 55.4425 57.4505 55.8143 57.1383 56.0266C56.8325 56.2468 56.4255 56.2733 56.0919 56.0971L52.1305 54.0619C51.9928 53.9897 51.8398 53.9509 51.6833 53.9465H51.4409C51.3569 53.9588 51.2746 53.9853 51.1994 54.0258L47.2372 56.0706C47.0413 56.1675 46.8195 56.2019 46.6022 56.1675C46.0727 56.0689 45.7194 55.572 45.8061 55.0478L46.6022 50.7131C46.6549 50.3968 46.5485 50.0753 46.3168 49.8506L43.0871 46.767C42.817 46.5089 42.7231 46.1212 42.8465 45.7715C42.9664 45.4226 43.2723 45.168 43.6417 45.1107L48.0869 44.4755C48.425 44.4411 48.7219 44.2385 48.874 43.939L50.8327 39.9832C50.8792 39.8951 50.9392 39.814 51.0116 39.7453L51.0921 39.6836C51.1342 39.6378 51.1825 39.5999 51.2361 39.5691L51.3336 39.5338L51.4857 39.4722H51.8622C52.1985 39.5065 52.4946 39.7048 52.6493 40.0008L54.634 43.939C54.7771 44.227 55.0553 44.427 55.3764 44.4755L59.8216 45.1107C60.1972 45.1636 60.5112 45.4191 60.6355 45.7715C60.7527 46.1248 60.6516 46.5124 60.3761 46.767L57.031 49.8859Z" fill="#473729"/>
<path d="M80.1834 49.8859C79.9517 50.107 79.8453 50.4268 79.898 50.7404L80.6932 55.0751C80.7603 55.4425 80.6028 55.8143 80.2907 56.0266C79.9848 56.2468 79.5778 56.2733 79.2442 56.0971L75.2829 54.0619C75.1451 53.9897 74.9922 53.9509 74.8357 53.9465H74.5933C74.5092 53.9588 74.4269 53.9853 74.3518 54.0258L70.3895 56.0706C70.1937 56.1675 69.9718 56.2019 69.7545 56.1675C69.225 56.0689 68.8717 55.572 68.9585 55.0478L69.7545 50.7131C69.8073 50.3968 69.7008 50.0753 69.4692 49.8506L66.2395 46.767C65.9694 46.5089 65.8754 46.1212 65.9989 45.7715C66.1187 45.4226 66.4246 45.168 66.794 45.1107L71.2392 44.4755C71.5773 44.4411 71.8743 44.2385 72.0263 43.939L73.9851 39.9832C74.0316 39.8951 74.0915 39.814 74.164 39.7453L74.2445 39.6836C74.2865 39.6378 74.3348 39.5999 74.3885 39.5691L74.486 39.5338L74.638 39.4722H75.0146C75.3508 39.5065 75.6469 39.7048 75.8016 40.0008L77.7863 43.939C77.9294 44.227 78.2076 44.427 78.5287 44.4755L82.9739 45.1107C83.3496 45.1636 83.6635 45.4191 83.7878 45.7715C83.905 46.1248 83.8039 46.5124 83.5285 46.767L80.1834 49.8859Z" fill="#473729"/>
<path d="M103.121 49.8859C102.876 50.107 102.764 50.4268 102.819 50.7404L103.661 55.0751C103.732 55.4425 103.566 55.8143 103.235 56.0266C102.911 56.2468 102.48 56.2733 102.127 56.0971L97.9327 54.0619C97.7869 53.9897 97.6249 53.9509 97.4592 53.9465H97.2026C97.1136 53.9588 97.0264 53.9853 96.9469 54.0258L92.7516 56.0706C92.5442 56.1675 92.3093 56.2019 92.0792 56.1675C91.5185 56.0689 91.1444 55.572 91.2363 55.0478L92.0792 50.7131C92.135 50.3968 92.0223 50.0753 91.7771 49.8506L88.3574 46.767C88.0714 46.5089 87.9719 46.1212 88.1026 45.7715C88.2295 45.4226 88.5534 45.168 88.9445 45.1107L93.6512 44.4755C94.0092 44.4411 94.3236 44.2385 94.4846 43.939L96.5586 39.9832C96.6078 39.8951 96.6713 39.814 96.748 39.7453L96.8332 39.6836C96.8777 39.6378 96.9289 39.5999 96.9857 39.5691L97.0889 39.5338L97.2499 39.4722H97.6486C98.0047 39.5065 98.3182 39.7048 98.482 40.0008L100.583 43.939C100.735 44.227 101.03 44.427 101.369 44.4755L106.076 45.1107C106.474 45.1636 106.806 45.4191 106.938 45.7715C107.062 46.1248 106.955 46.5124 106.663 46.767L103.121 49.8859Z" fill="#473729"/>
<path d="M125.436 49.8859C125.205 50.107 125.098 50.4268 125.151 50.7404L125.946 55.0751C126.013 55.4425 125.856 55.8143 125.544 56.0266C125.238 56.2468 124.831 56.2733 124.497 56.0971L120.536 54.0619C120.398 53.9897 120.245 53.9509 120.089 53.9465H119.846C119.762 53.9588 119.68 53.9853 119.605 54.0258L115.642 56.0706C115.447 56.1675 115.225 56.2019 115.007 56.1675C114.478 56.0689 114.125 55.572 114.211 55.0478L115.007 50.7131C115.06 50.3968 114.954 50.0753 114.722 49.8506L111.492 46.767C111.222 46.5089 111.128 46.1212 111.252 45.7715C111.372 45.4226 111.678 45.168 112.047 45.1107L116.492 44.4755C116.83 44.4411 117.127 44.2385 117.279 43.939L119.238 39.9832C119.285 39.8951 119.344 39.814 119.417 39.7453L119.497 39.6836C119.539 39.6378 119.588 39.5999 119.641 39.5691L119.739 39.5338L119.891 39.4722H120.267C120.604 39.5065 120.9 39.7048 121.055 40.0008L123.039 43.939C123.182 44.227 123.461 44.427 123.782 44.4755L128.227 45.1107C128.603 45.1636 128.916 45.4191 129.041 45.7715C129.158 46.1248 129.057 46.5124 128.781 46.767L125.436 49.8859Z" fill="#473729"/>
<path d="M148.59 49.8859C148.358 50.107 148.252 50.4268 148.304 50.7404L149.099 55.0751C149.167 55.4425 149.009 55.8143 148.697 56.0266C148.391 56.2468 147.984 56.2733 147.65 56.0971L143.689 54.0619C143.551 53.9897 143.398 53.9509 143.242 53.9465H143C142.915 53.9588 142.833 53.9853 142.758 54.0258L138.796 56.0706C138.6 56.1675 138.378 56.2019 138.161 56.1675C137.631 56.0689 137.278 55.572 137.365 55.0478L138.161 50.7131C138.214 50.3968 138.107 50.0753 137.875 49.8506L134.646 46.767C134.376 46.5089 134.282 46.1212 134.405 45.7715C134.525 45.4226 134.831 45.168 135.2 45.1107L139.645 44.4755C139.984 44.4411 140.281 44.2385 140.433 43.939L142.391 39.9832C142.438 39.8951 142.498 39.814 142.57 39.7453L142.651 39.6836C142.693 39.6378 142.741 39.5999 142.795 39.5691L142.892 39.5338L143.044 39.4722H143.421C143.757 39.5065 144.053 39.7048 144.208 40.0008L146.193 43.939C146.336 44.227 146.614 44.427 146.935 44.4755L151.38 45.1107C151.756 45.1636 152.07 45.4191 152.194 45.7715C152.311 46.1248 152.21 46.5124 151.935 46.767L148.59 49.8859Z" fill="#473729"/>
<path d="M42.9175 82.1154V80.7153L46.3234 77.5495C47.8103 76.1908 48.2131 75.6873 48.2131 74.9907V74.97C48.2131 74.1217 47.5979 73.5285 46.5871 73.5285C45.5543 73.5285 44.8438 74.1768 44.8438 75.1217V75.1562H42.8003L42.793 75.1286C42.793 73.2182 44.3751 71.9077 46.6896 71.9077C48.865 71.9077 50.3885 73.0802 50.3885 74.7976V74.8183C50.3885 75.9494 49.766 76.8874 47.8396 78.5634L45.8839 80.2807V80.4394H50.5424V82.1154H42.9175Z" fill="#473729"/>
<path d="M56.6364 82.3706C54.0289 82.3706 52.4394 80.3566 52.4394 77.1426V77.1288C52.4394 73.9079 54.0289 71.9077 56.6364 71.9077C59.2513 71.9077 60.8334 73.9079 60.8334 77.1288V77.1426C60.8334 80.3566 59.2513 82.3706 56.6364 82.3706ZM56.6364 80.7222C57.8889 80.7222 58.5994 79.391 58.5994 77.1426V77.1288C58.5994 74.8735 57.8889 73.5561 56.6364 73.5561C55.3912 73.5561 54.6807 74.8735 54.6807 77.1288V77.1426C54.6807 79.391 55.3912 80.7222 56.6364 80.7222Z" fill="#473729"/>
<path d="M63.0527 82.1154V72.1629H65.2647V76.6322H65.3966L69.3006 72.1629H71.7616L67.9089 76.5218L72.0326 82.1154H69.3811L66.3122 77.8875L65.2647 79.0738V82.1154H63.0527Z" fill="#473729"/>
<path d="M72.2304 79.0048V77.1909H75.3946V74.301H77.321V77.1909H80.4925V79.0048H77.321V81.8947H75.3946V79.0048H72.2304Z" fill="#473729"/>
<path d="M86.5499 82.1154V72.1629H90.952C93.3545 72.1629 94.7315 73.3699 94.7315 75.3287V75.3425C94.7315 76.6184 94.0283 77.715 92.8198 78.1633L95.0464 82.1154H92.5414L90.5711 78.4737H88.762V82.1154H86.5499ZM88.762 76.9564H90.7103C91.8163 76.9564 92.4682 76.3632 92.4682 75.3838V75.37C92.4682 74.4113 91.787 73.7906 90.681 73.7906H88.762V76.9564Z" fill="#473729"/>
<path d="M96.9655 82.1154V72.1629H103.968V73.8803H99.1775V76.2805H103.697V77.8806H99.1775V80.398H103.968V82.1154H96.9655Z" fill="#473729"/>
<path d="M109.066 82.1154L105.543 72.1629H108.026L110.362 79.798H110.494L112.823 72.1629H115.314L111.79 82.1154H109.066Z" fill="#473729"/>
<path d="M117.123 82.1154V72.1629H119.335V82.1154H117.123Z" fill="#473729"/>
<path d="M121.898 82.1154V72.1629H128.901V73.8803H124.11V76.2805H128.63V77.8806H124.11V80.398H128.901V82.1154H121.898Z" fill="#473729"/>
<path d="M133.391 82.1154L130.593 72.1629H132.892L134.541 79.2738H134.658L136.584 72.1629H138.452L140.415 79.2738H140.532L142.165 72.1629H144.451L141.645 82.1154H139.572L137.573 75.4114H137.456L135.478 82.1154H133.391Z" fill="#473729"/>
<path d="M150.083 82.3706C147.556 82.3706 145.96 81.2325 145.835 79.4669L145.828 79.3565H147.959L147.966 79.4255C148.047 80.1704 148.904 80.6739 150.142 80.6739C151.321 80.6739 152.134 80.1428 152.134 79.3772V79.3703C152.134 78.7151 151.614 78.3496 150.303 78.0944L149.19 77.8806C146.992 77.4598 146.047 76.4943 146.047 74.9838V74.9769C146.047 73.1285 147.732 71.9077 150.076 71.9077C152.544 71.9077 153.995 73.1354 154.134 74.7976L154.141 74.8872H152.061L152.046 74.8045C151.922 74.0941 151.189 73.5975 150.076 73.5975C148.985 73.6044 148.259 74.0734 148.259 74.8183V74.8252C148.259 75.4735 148.772 75.8597 150.017 76.1011L151.138 76.3149C153.372 76.7495 154.346 77.5909 154.346 79.1427V79.1496C154.346 81.1222 152.72 82.3706 150.083 82.3706Z" fill="#473729"/>
<path fill-rule="evenodd" clip-rule="evenodd" d="M0.740234 55.8468C0.871269 55.6331 1.08965 55.6758 1.26437 55.7186C2.79311 56.1887 4.14713 57.0008 5.4138 58.0265C7.94714 60.0779 9.78163 62.5994 10.6989 65.762C10.9173 66.5312 11.0483 67.3433 11.2667 68.1126C11.3104 68.2835 11.3977 68.4545 11.4851 68.5827C11.5288 68.5827 11.5724 68.5399 11.6161 68.5399C11.6161 68.4545 11.6161 68.4117 11.6161 68.3262C11.3104 66.6167 10.9609 64.95 10.6989 63.1977C10.5242 62.0865 10.4805 61.0181 10.3931 59.9069C10.3058 58.753 10.3494 57.5563 10.1747 56.4024C10.0874 55.8041 9.73796 55.2912 9.47589 54.7356C9.43221 54.6501 9.34485 54.6074 9.21382 54.6074C7.55404 54.3083 6.41841 53.2398 5.54484 51.9149C4.54024 50.2909 3.88506 48.4959 3.4046 46.5727C2.88046 44.4358 2.53104 42.2562 2.61839 40.0765C2.61839 39.7346 2.66207 39.3927 2.74942 39.0508C2.83678 38.6661 2.88046 38.6662 3.18621 38.8798C5.23909 40.3329 6.76784 42.2134 7.94715 44.4358C8.82071 46.0598 9.47589 47.8121 9.6506 49.6926C9.78163 51.0174 9.73795 52.3422 9.78163 53.6671C9.78163 54.009 9.86899 54.351 9.91267 54.6929C9.91267 54.7784 9.95634 54.8211 10.0437 54.9066C10.1311 54.7784 10.1747 54.6928 10.1747 54.6501C10.2621 52.9406 10.3058 51.2738 10.4368 49.5216C10.5678 47.8548 10.7862 46.1452 11.0046 44.4785C11.0483 44.0511 11.1357 43.6237 11.1793 43.1963C11.1793 42.9826 11.0483 42.7689 11.0483 42.5552C10.9609 42.1706 10.9173 41.8288 10.8299 41.4441C10.7425 41.2732 10.6552 41.0595 10.4805 40.9313C9.30117 40.2902 8.55864 39.3072 8.0345 38.1105C7.46668 36.8711 7.24829 35.589 7.20461 34.2641C7.11726 32.5973 7.07357 30.8878 7.11725 29.221C7.20461 27.597 7.46668 26.0585 8.0345 24.5626C8.07818 24.4344 8.16553 24.3917 8.25289 24.2635C8.34025 24.349 8.42761 24.3917 8.51496 24.4772C9.82531 26.0157 10.8736 27.768 11.4851 29.6912C11.9219 31.0588 12.1403 32.5119 12.2276 33.965C12.315 36.2301 11.8782 38.4524 11.354 40.632C11.2667 40.9739 11.3104 41.2731 11.5288 41.615C11.6161 41.3586 11.6598 41.1877 11.7472 40.974C12.4023 37.6404 13.4069 34.3923 14.761 31.2725C15.023 30.6314 14.8483 30.0758 14.9357 29.4347C15.023 29.0073 14.8046 28.7082 14.4989 28.409C13.4943 27.4261 12.9702 26.1012 12.8391 24.7335C12.5334 22.212 12.9701 19.8187 13.5816 17.3399C13.9311 15.9722 14.3678 14.5619 14.9793 13.2798C15.1977 12.8524 15.4598 12.425 15.6782 12.0404C15.7219 11.9549 15.8092 11.9122 15.9403 11.7412C16.115 12.1259 16.2897 12.425 16.4644 12.7669C17.2069 14.391 17.6437 16.1432 17.7748 17.8955C17.9932 20.8444 17.6437 23.7078 16.5081 26.4431C16.246 27.0841 15.8966 27.6825 15.5908 28.3236C15.4598 28.58 15.4598 28.8791 15.4161 29.1356C15.5035 29.1783 15.5472 29.1783 15.5908 29.221C15.7219 29.0073 15.8092 28.8364 15.9403 28.58C16.7265 27.0414 17.469 25.4601 18.3426 23.9642C19.3035 22.3402 20.4391 20.759 21.4001 19.1349C21.5748 18.793 21.5748 18.3656 21.7058 18.0237C21.7495 17.9382 21.7058 17.8528 21.7495 17.7246C21.8368 17.3399 21.7932 17.0407 21.4874 16.6988C20.8322 15.9722 20.5702 15.032 20.4828 14.0491C20.1771 10.7155 21.3564 7.8521 23.0598 5.11687C23.846 3.83473 24.7196 2.72348 25.8552 1.74051C26.2047 1.3986 26.3794 1.4414 26.4231 1.91152C26.5541 2.97997 26.6414 4.04842 26.6414 5.11687C26.6851 7.8521 26.161 10.5018 25.0253 13.0234C24.3702 14.4337 23.4966 15.6731 22.4483 16.8698C22.0989 17.2544 22.0989 17.5963 22.0989 18.1519C22.2736 18.0237 22.4047 17.9382 22.4483 17.81C23.9771 15.8013 25.6368 13.9208 27.4277 12.1258C28.2139 11.3566 29.0438 10.63 29.7863 9.86072C29.9173 9.7325 30.0047 9.60433 30.0047 9.47612C29.8736 7.85208 30.4851 6.56996 31.4897 5.33056C32.7127 3.9202 34.2852 2.97997 35.9886 2.3389C37.2553 1.86878 38.5656 1.39865 39.8323 0.928528C39.9196 0.88579 39.9633 0.885811 40.0943 0.843073C40.0943 0.971286 40.138 1.09946 40.0943 1.22767C39.3081 3.83469 38.0415 6.14258 35.9449 7.89483C34.3725 9.17697 32.5817 9.94621 30.5288 9.98895C30.3978 9.98895 30.1794 10.0745 30.0483 10.16C29.0001 11.1429 27.9081 12.0831 26.9035 13.1088C25.9426 14.0491 25.1127 15.1176 24.2391 16.1433C24.1081 16.2715 24.0644 16.3997 23.9771 16.5279C24.4139 16.7416 24.807 16.6134 24.9817 16.2287C25.5932 14.6902 26.7725 13.8353 28.3012 13.2798C29.7426 12.7669 31.1403 12.7669 32.6254 12.9806C33.8484 13.1088 34.984 13.3653 36.207 13.5362C36.2944 13.5362 36.338 13.579 36.4254 13.579C36.7748 13.6645 36.7748 13.7499 36.5564 13.9636C35.9886 14.5619 35.4645 15.203 34.853 15.7159C32.9311 17.3399 30.6598 18.1519 28.0828 17.9382C27.0782 17.8528 26.161 17.5536 25.2874 17.0407C25.0254 16.9125 24.8069 16.827 24.5012 16.9125C24.3265 16.998 24.1081 17.0407 23.8897 17.0407C23.5403 17.0407 23.3656 17.169 23.1909 17.4254C21.269 19.9897 19.5219 22.7249 18.0805 25.5883C17.9932 25.7165 17.9495 25.8021 17.9058 25.973C17.9058 26.0157 17.9058 26.0584 17.9058 26.1011C18.3426 26.2294 18.7794 25.973 18.8667 25.6311C19.3035 23.4087 20.7886 22.0838 22.8414 21.3573C24.2391 20.8872 25.6368 20.7162 27.1219 20.6734C28.1265 20.6307 29.1311 20.5453 30.1357 20.5025C30.4851 20.4598 30.5725 20.588 30.3978 20.8871C28.607 23.7933 26.2483 25.9729 22.7104 26.6567C21.5748 26.8704 20.4828 26.785 19.3909 26.4431C19.0851 26.3148 18.823 26.3148 18.561 26.5285C18.3863 26.6567 18.2115 26.6995 17.9932 26.7422C17.5564 26.7849 17.4253 27.0841 17.2069 27.3833C16.0713 29.7766 15.0667 32.1699 14.2805 34.6487C13.8874 35.8454 13.538 37.0848 13.1885 38.2815C13.1449 38.4097 13.1448 38.4952 13.1448 38.6234C13.7127 38.5806 13.9311 38.2815 13.9311 37.8114C13.9311 35.6745 14.7609 33.9222 16.4207 32.5546C17.8184 31.4434 19.3908 30.6742 21.0069 30.0331C22.0989 29.6057 23.1909 29.1784 24.2828 28.751C24.4138 28.7082 24.5012 28.6655 24.7196 28.6227C24.5886 29.0074 24.5449 29.3065 24.4139 29.6484C23.846 31.2297 23.1909 32.7256 22.1426 34.0504C20.7012 36.0164 18.8667 37.5976 16.4207 38.2815C15.8092 38.4524 15.0667 38.4097 14.4115 38.5379C14.1931 38.5807 14.0184 38.6661 13.8437 38.7516C13.7127 38.8371 13.5816 39.0081 13.4506 39.0935C12.8828 39.35 12.6644 39.82 12.6207 40.4184C12.315 42.1279 11.9656 43.7947 11.6598 45.5469C11.4414 46.7863 11.3104 48.0685 11.223 49.3079C11.092 50.4618 11.092 51.6584 11.0483 52.8124C11.0483 52.8978 11.0483 52.9833 11.092 53.0688C11.4851 52.9833 11.8782 52.5132 11.7908 52.1286C11.2667 49.5216 12.0529 47.2137 13.5816 45.1623C14.8046 43.4955 16.3771 42.2561 17.9932 41.0167C18.692 40.5039 19.3472 39.9483 20.046 39.3927C20.1334 39.3072 20.2207 39.2644 20.3955 39.1362C20.3955 39.6063 20.4391 39.991 20.3955 40.3329C20.0897 43.2818 19.3035 46.0598 17.5564 48.4959C16.246 50.3764 14.6299 51.8722 12.4023 52.556C12.2713 52.5987 12.0966 52.7696 12.0092 52.9406C11.8345 53.1543 11.7035 53.4535 11.4851 53.6244C11.1357 53.9236 11.092 54.2655 11.1357 54.6501C11.2667 56.6161 11.2667 58.6248 11.4414 60.5907C11.6598 62.7276 12.0529 64.8218 12.4023 66.9587C12.4023 67.0869 12.4897 67.1724 12.5334 67.3006C13.0138 66.9159 13.1012 66.4031 12.8391 65.933C12.3587 65.2064 12.2713 64.3516 12.2276 63.5396C12.1839 61.7446 12.7081 60.0779 13.538 58.4538C14.5862 56.4879 15.984 54.7356 17.338 52.9406C17.7748 52.385 18.1678 51.8294 18.6046 51.2311C18.692 51.1029 18.7357 51.0602 18.9104 50.8465C18.9977 51.0602 19.0414 51.2311 19.0414 51.3593C19.3472 53.368 19.3472 55.3767 18.9541 57.3426C18.6047 59.2231 17.9058 61.0181 16.9449 62.7276C16.1587 64.0953 15.1104 65.2492 13.8437 66.1467C13.6253 66.2749 13.4943 66.5313 13.3632 66.7877C13.1885 67.1724 13.0138 67.5142 12.8391 67.8989C12.7518 68.0698 12.7081 68.2835 12.7518 68.4545C13.7564 72.6855 15.2851 76.7884 17.2943 80.6348C17.3816 80.763 17.4253 80.8484 17.5127 81.0194C17.7747 80.7202 17.8621 80.1646 17.6437 79.951C16.6391 78.968 16.3334 77.6859 16.0713 76.4038C15.6782 74.5661 16.0276 72.8138 16.5081 71.0615C17.1196 68.7964 18.0805 66.6595 18.9104 64.4372C19.0414 64.138 19.1725 63.7961 19.3035 63.4542C19.4345 63.6251 19.5219 63.7533 19.5656 63.8815C20.3518 65.6765 20.8322 67.5143 21.0069 69.4375C21.2253 71.8308 20.9633 74.2241 20.2207 76.5747C19.8713 77.6004 19.4345 78.5407 18.7794 79.3954C18.3863 79.951 18.2115 80.5066 18.0805 81.1476C17.9495 81.7887 18.1242 82.2589 18.4299 82.8145C20.2644 85.8916 22.361 88.7122 24.807 91.2765C24.938 91.4047 25.1127 91.4902 25.2874 91.6184C25.3311 91.4475 25.3748 91.2338 25.3311 91.0201C25.2874 90.8919 25.2001 90.6355 25.069 90.5928C23.9771 89.9944 23.3219 89.0542 22.7104 88.0285C22.1426 87.0455 21.8368 85.9343 21.7932 84.8231C21.7495 83.7119 21.6621 82.558 21.7058 81.4468C21.7932 80.0792 22.0552 78.6262 22.1863 77.2585C22.2736 76.4893 22.361 75.72 22.4483 74.908C22.4483 74.7797 22.5357 74.6088 22.5794 74.3523C22.7978 74.566 22.9288 74.6942 23.0598 74.8224C24.9817 77.2157 26.2483 79.951 26.6414 83.0282C26.9035 84.9941 26.8598 86.96 26.292 88.8832C26.2047 89.1824 26.1173 89.5243 25.9863 89.7807C25.7679 90.2935 25.7679 90.8064 25.7242 91.3193C25.7242 92.0031 25.9426 92.5159 26.5104 92.986C29.2621 95.4221 32.2323 97.4736 35.5518 99.0549C35.6829 99.1404 35.9012 99.354 36.0323 99.0976C36.1633 98.9266 35.9012 98.4566 35.6829 98.4138C33.1495 97.901 31.7955 96.1059 30.9219 93.8836C30.2667 92.2168 29.9173 90.4645 29.6989 88.7122C29.5242 87.5156 29.3058 86.3189 29.1311 85.0795C29.0874 84.9513 29.1311 84.8231 29.1311 84.6949C29.2621 84.7376 29.4368 84.6949 29.5242 84.7804C31.6644 85.9343 33.3679 87.5156 34.5472 89.6952C35.1587 90.8064 35.6392 91.9176 35.9886 93.1143C36.338 94.2682 36.4254 95.5076 36.338 96.7043C36.2943 97.5591 36.207 98.3283 36.4691 99.1404C36.6001 99.4395 36.6875 99.6104 36.9932 99.7386C39.5265 100.764 42.1036 101.576 44.7679 102.004C45.2047 102.089 45.4231 102.303 45.5105 102.73C45.5541 103.029 45.4231 103.115 45.161 103.115C42.7151 102.73 40.3564 102.175 38.0852 101.234C37.299 100.935 36.6875 101.192 35.9886 101.32C35.8576 101.363 35.7702 101.448 35.6829 101.619C34.7656 103.329 33.3242 104.269 31.4897 104.696C30.7035 104.867 29.9173 104.953 29.1311 105.081C29.0438 105.081 29.0001 105.124 28.9127 105.166C28.4323 105.166 27.9518 105.166 27.515 105.166C27.4277 105.124 27.384 105.081 27.3403 105.081C25.9863 104.953 24.6759 104.696 23.4092 104.312C22.4046 103.97 21.4 103.628 20.5702 102.944C20.1334 102.559 20.1334 102.517 20.5702 102.132C22.1426 100.85 23.8897 99.8241 25.8552 99.2258C28.607 98.371 31.2714 98.4565 33.8047 99.7386C34.3725 99.9951 34.8966 100.337 35.4645 100.593C35.7265 100.722 35.9449 100.85 36.2507 100.551C36.1196 100.465 35.9886 100.422 35.9012 100.38C32.6254 98.8839 29.6116 96.9179 26.8598 94.4818C26.6851 94.3536 26.4231 94.2255 26.2047 94.14C25.9426 94.0546 25.6805 94.0545 25.4185 94.0118C25.1564 93.9691 24.9817 94.0545 24.807 94.2255C24.0644 95.0375 23.1472 95.5076 22.0989 95.6785C20.6138 95.9777 19.1288 95.764 17.7311 95.3366C15.7219 94.8238 13.9747 93.8408 12.2713 92.6869C11.4851 92.1313 10.8299 91.533 10.2184 90.721C9.86899 90.2081 9.86899 90.0799 10.4805 89.8662C12.4023 89.0542 14.4552 88.7123 16.5954 88.7978C18.9104 88.926 20.9633 89.5671 22.7541 91.0201C23.5403 91.6612 24.1955 92.345 24.8943 93.0288C25.069 93.1998 25.2437 93.4562 25.6805 93.3279C25.5495 93.1997 25.5058 93.0715 25.3748 92.986C24.5012 92.0458 23.5403 91.1056 22.7104 90.0799C21.138 88.2422 19.7403 86.2762 18.4736 84.2247C18.3862 84.0965 18.2989 83.9684 18.1242 83.8401C17.7748 83.6264 17.4253 83.4128 17.1196 83.1991C16.9449 83.0709 16.7702 83.0708 16.5518 83.1563C16.2023 83.2845 15.7656 83.4983 15.4161 83.541C13.4506 83.9256 11.6598 83.37 10.0437 82.2161C7.90347 80.763 6.28737 78.8398 4.97702 76.6601C4.54024 75.9336 4.27817 75.1216 3.97242 74.3096C3.84139 73.8822 3.88506 73.7112 4.36553 73.754C5.28277 73.7967 6.20002 73.7967 7.07358 73.925C10.3495 74.5233 12.9701 76.3183 14.9357 78.9681C15.6782 79.951 16.246 81.105 16.8575 82.1734C16.9885 82.4298 17.1196 82.6435 17.5127 82.6435C17.469 82.5152 17.4253 82.387 17.3816 82.3015C16.7265 80.9767 15.9839 79.6945 15.4161 78.3697C14.5862 76.4465 13.8 74.4805 13.0575 72.4718C12.5771 71.2751 12.4023 69.9503 11.4851 68.9673C11.2667 68.7536 11.092 68.6682 10.7862 68.6682C10.3058 68.7109 9.82531 68.7109 9.34485 68.5827C7.90346 68.2835 6.76783 67.4288 5.8069 66.3176C3.53563 63.7533 2.09425 60.7189 1.22068 57.4281C1.08965 57.0434 1.04598 56.6589 0.958626 56.3169C0.740234 56.3169 0.740234 56.0605 0.740234 55.8468ZM169.994 105.038C169.426 104.953 168.858 104.91 168.29 104.782C166.63 104.483 165.058 103.884 163.922 102.559C163.66 102.26 163.485 101.918 163.267 101.576C163.18 101.448 163.136 101.32 163.049 101.32C162.437 101.149 161.826 100.807 161.171 101.064C158.768 101.961 156.279 102.645 153.745 102.987C153.439 103.03 153.352 102.901 153.396 102.602C153.439 102.217 153.658 101.961 154.095 101.876C156.803 101.448 159.38 100.636 161.869 99.6104C162.219 99.4822 162.306 99.2685 162.437 98.9693C162.699 98.2001 162.656 97.4308 162.568 96.6615C162.394 94.2682 163.005 92.0885 164.097 89.9944C165.276 87.7292 167.023 86.0198 169.251 84.7804C169.382 84.6949 169.6 84.6522 169.775 84.6094C169.775 84.7804 169.863 84.9941 169.819 85.1223C169.469 87.0028 169.207 88.9687 168.814 90.8491C168.508 92.4304 168.072 93.9691 167.242 95.2939C166.499 96.4906 165.495 97.4308 164.184 98.0291C163.966 98.1573 163.704 98.1574 163.442 98.2001C163.005 98.2429 162.83 98.5848 162.961 99.0549C163.136 98.9694 163.311 98.9267 163.529 98.8412C166.761 97.3026 169.688 95.2939 172.352 92.9434C172.92 92.4305 173.226 91.9177 173.182 91.1484C173.138 90.6355 173.138 90.1653 172.964 89.6952C172.308 88.0284 172.09 86.2762 172.177 84.4812C172.309 81.1904 173.313 78.2415 175.191 75.549C175.453 75.1644 175.759 74.8652 176.021 74.5232C176.109 74.4378 176.196 74.3951 176.371 74.2241C176.458 74.6087 176.502 74.9079 176.502 75.2071C176.676 76.5747 176.851 77.985 177.026 79.3527C177.157 80.7203 177.288 82.1306 177.2 83.541C177.157 84.6522 177.069 85.7206 176.676 86.7463C176.24 87.943 175.584 89.0542 174.58 89.8662C174.405 89.9944 174.187 90.1654 173.968 90.2508C173.619 90.4218 173.4 90.8919 173.575 91.2765C173.619 91.3192 173.75 91.4048 173.794 91.3621C173.925 91.2766 174.056 91.1484 174.143 91.0201C176.72 88.3704 178.86 85.3787 180.738 82.2161C180.913 81.8742 181 81.5751 180.913 81.1904C180.782 80.8485 180.782 80.5066 180.738 80.122C180.695 79.9938 180.651 79.8227 180.564 79.7373C178.948 77.6858 178.205 75.2926 177.943 72.7711C177.594 69.6512 178.118 66.6167 179.384 63.7533C179.472 63.6251 179.515 63.4969 179.646 63.3259C179.734 63.4541 179.777 63.4969 179.821 63.6251C180.564 65.5055 181.306 67.3433 181.961 69.2665C182.529 70.8478 182.966 72.4291 183.053 74.1386C183.184 75.4635 182.879 76.7883 182.442 78.0277C182.18 78.7115 181.874 79.3527 181.35 79.8228C181.132 80.0365 181.132 80.5066 181.394 80.9339C181.525 80.8057 181.568 80.6776 181.656 80.5493C182.748 78.4124 183.752 76.2755 184.495 74.0104C185.106 72.1299 185.63 70.2922 186.155 68.4117C186.198 68.2408 186.154 67.9843 186.067 67.7706C185.936 67.386 185.718 67.0014 185.543 66.6167C185.412 66.4458 185.325 66.1893 185.15 66.0611C183.359 64.8644 182.18 63.155 181.263 61.2745C180.476 59.6077 179.952 57.8127 179.777 55.9322C179.646 54.3509 179.646 52.7697 179.909 51.1884C179.909 51.0602 179.952 50.9746 179.996 50.8891C179.996 50.8464 180.04 50.8465 180.083 50.761C180.171 50.8465 180.214 50.8892 180.258 50.9319C181.612 52.7697 183.053 54.5646 184.364 56.4451C185.368 57.8127 186.111 59.3513 186.504 60.9753C186.81 62.2575 186.897 63.4968 186.548 64.779C186.417 65.1209 186.329 65.4201 186.155 65.6765C185.936 65.9757 185.892 66.2322 186.067 66.5741C186.154 66.7023 186.198 66.9159 186.373 67.1723C186.504 66.9586 186.548 66.8732 186.548 66.7877C186.897 64.9073 187.203 62.984 187.465 61.1036C187.771 58.7957 187.858 56.4879 187.814 54.18C187.814 54.0091 187.683 53.7953 187.596 53.6671C187.509 53.5389 187.334 53.4107 187.246 53.2825C186.941 52.7269 186.504 52.385 185.936 52.1713C184.189 51.5729 182.922 50.3336 181.787 48.9233C180.083 46.7009 179.079 44.1793 178.686 41.4013C178.554 40.7603 178.554 40.0337 178.467 39.3927C178.467 39.2645 178.511 39.179 178.511 39.0081C178.642 39.0936 178.729 39.1362 178.817 39.179C180.258 40.2902 181.656 41.4013 183.053 42.5552C184.713 44.0083 186.155 45.6752 186.853 47.8548C187.246 49.1797 187.465 50.5046 187.115 51.9149C186.984 52.2996 187.29 52.7269 187.814 52.9406C187.814 52.7269 187.814 52.556 187.814 52.3423C187.683 50.8037 187.596 49.3079 187.465 47.7694C187.246 45.2906 186.81 42.8545 186.242 40.3757C186.155 40.1192 186.111 39.8628 186.067 39.6064C186.067 39.5636 186.067 39.5637 186.023 39.5209C185.587 39.0508 185.063 38.6234 184.495 38.367C181.83 38.4952 179.777 37.2131 177.987 35.4608C176.108 33.6658 174.973 31.4007 174.23 29.0073C174.187 28.8791 174.187 28.7937 174.143 28.6227C174.274 28.6655 174.405 28.6227 174.492 28.6654C176.152 29.3065 177.899 29.9903 179.559 30.7169C180.869 31.3152 182.092 32.0418 183.097 33.1102C184.364 34.4351 185.019 36.0163 184.975 37.8541C184.975 38.2387 185.194 38.4952 185.761 38.5807C185.761 38.4525 185.761 38.3242 185.718 38.196C184.713 34.3923 183.359 30.7596 181.656 27.2124C181.525 26.9132 181.306 26.785 180.957 26.5713C180.214 26.1867 179.515 26.2722 178.773 26.4858C177.113 26.9132 175.541 26.4858 174.012 25.8448C171.872 24.9045 170.256 23.3232 168.945 21.4C168.814 21.1863 168.64 20.9726 168.552 20.7589C168.377 20.4597 168.421 20.3743 168.814 20.3743C169.644 20.417 170.518 20.5025 171.391 20.5025C172.833 20.588 174.187 20.6734 175.584 21.1008C176.764 21.4427 177.812 21.9556 178.686 22.8103C179.428 23.5369 179.909 24.4344 180.083 25.4601C180.171 25.8874 180.607 26.1012 181.088 26.0157C181.044 25.8875 180.957 25.7593 180.957 25.6311C179.472 22.7249 177.725 19.9469 175.715 17.3399C175.584 17.1262 175.366 17.0835 175.148 16.998C174.361 16.7843 173.706 17.0407 173.007 17.3399C170.736 18.3228 168.421 18.0664 166.237 17.0407C164.708 16.3569 163.442 15.2885 162.437 13.9636C162.175 13.6217 162.219 13.5789 162.612 13.4934C164.315 13.237 166.062 12.8952 167.81 12.8097C169.863 12.6815 171.741 13.2371 173.182 14.8611C173.488 15.203 173.706 15.6304 173.925 16.015C174.187 16.4852 174.361 16.6134 174.973 16.4424C174.711 16.1005 174.449 15.8014 174.187 15.5022C172.833 13.8782 171.391 12.3823 169.819 10.9292C169.469 10.5873 169.076 10.2882 168.727 10.0317C168.596 9.94625 168.508 9.9035 168.377 9.9035C165.713 9.81802 163.573 8.66407 161.782 6.78361C160.297 5.2023 159.336 3.32183 158.768 1.22767C158.725 1.09946 158.725 0.971245 158.725 0.800293C159.161 0.928507 159.511 1.09952 159.86 1.185C161.214 1.69785 162.612 2.16795 163.966 2.76628C165.757 3.5783 167.285 4.77492 168.246 6.56992C168.727 7.46741 168.945 8.36495 168.858 9.39066C168.858 9.51888 168.945 9.73252 169.033 9.77526C171.741 12.1686 174.143 14.8611 176.371 17.7246C176.458 17.8528 176.502 17.981 176.676 18.0665C176.807 17.5964 176.807 17.2116 176.458 16.9125C174.754 15.032 173.531 12.9378 172.876 10.5018C172.352 8.57858 172.09 6.56994 172.177 4.56125C172.221 3.66376 172.309 2.76628 172.396 1.91152C172.44 1.52688 172.571 1.48408 172.92 1.74051C174.492 3.10812 175.584 4.77492 176.589 6.56992C177.375 8.02301 177.943 9.56159 178.249 11.1856C178.554 12.7669 178.598 14.3055 177.987 15.8014C177.812 16.186 177.506 16.5706 177.288 16.9553C177.2 17.0835 177.157 17.2971 177.157 17.4681C177.157 17.8527 177.288 18.1947 177.288 18.5793C177.331 19.0067 177.55 19.3059 177.768 19.6478C179.777 22.4685 181.481 25.4601 183.01 28.58C183.141 28.7936 183.228 29.0073 183.403 29.221C183.534 28.8791 183.49 28.58 183.272 28.2808C182.486 26.9559 181.961 25.5456 181.612 24.0925C181.175 22.2547 181.044 20.4171 181.132 18.4939C181.263 16.5707 181.699 14.6901 182.442 12.8952C182.573 12.5105 182.791 12.2113 182.966 11.8267C183.01 11.8267 183.053 11.8267 183.097 11.8267C183.315 12.2113 183.534 12.5105 183.752 12.8952C184.451 14.22 184.975 15.5876 185.281 17.0407C185.587 18.4083 185.849 19.7332 186.067 21.1436C186.329 22.9813 186.329 24.7763 185.674 26.5285C185.325 27.3405 184.888 28.0671 184.233 28.6654C184.102 28.7936 184.014 29.0501 184.014 29.221C183.971 29.7339 183.927 30.2467 184.014 30.7169C184.058 31.1015 184.233 31.4434 184.364 31.8281C185.543 34.8197 186.504 37.8541 187.159 40.974C187.203 41.1449 187.29 41.3586 187.334 41.6578C187.596 41.3159 187.64 41.0167 187.552 40.7603C187.29 39.5636 186.984 38.3669 186.81 37.1275C186.548 35.6317 186.548 34.0932 186.722 32.5546C186.984 30.3322 187.727 28.2381 188.95 26.4004C189.387 25.7593 189.867 25.1182 190.391 24.4772C190.566 24.2635 190.741 24.3061 190.784 24.6053C191.046 25.5028 191.352 26.4431 191.483 27.3406C191.833 29.392 191.833 31.4434 191.745 33.4948C191.614 35.0761 191.483 36.6147 190.872 38.1105C190.348 39.3499 189.605 40.4184 188.338 41.0167C188.207 41.1022 188.033 41.2731 187.989 41.4013C187.858 41.9142 187.683 42.427 187.596 42.9826C187.552 43.1963 187.596 43.4528 187.64 43.6665C187.814 45.0768 188.033 46.5299 188.207 47.9403C188.338 49.3079 188.382 50.6328 188.469 52.0004C188.513 52.8979 188.557 53.7953 188.6 54.6501C188.6 54.6928 188.644 54.7784 188.688 54.8211C188.994 54.6502 189.037 54.3509 189.037 54.0945C188.994 53.3679 188.994 52.6415 188.994 51.9149C188.95 48.0258 190.26 44.6495 192.706 41.6578C193.492 40.6321 194.497 39.7346 195.545 38.9653C195.895 38.6661 196.069 38.7517 196.113 39.2218C196.157 40.1193 196.244 41.0595 196.201 41.957C196.069 43.9229 195.72 45.8461 195.152 47.7694C194.628 49.3934 194.06 50.9746 193.056 52.385C192.269 53.4534 191.396 54.3082 190.042 54.5646C189.518 54.6929 189.299 54.9492 189.125 55.3766C188.775 56.1459 188.688 56.958 188.644 57.77C188.6 58.9239 188.513 60.0779 188.426 61.2318C188.251 62.8559 188.033 64.5226 187.814 66.1467C187.683 66.8305 187.509 67.5142 187.378 68.2408C187.334 68.369 187.334 68.4545 187.334 68.5827C187.378 68.5827 187.421 68.6254 187.465 68.6254C187.552 68.4972 187.64 68.3263 187.683 68.1553C188.033 66.9159 188.295 65.6338 188.732 64.4798C190.042 61.1035 192.401 58.5821 195.545 56.7443C196.201 56.3597 196.943 56.1032 197.686 55.804C198.122 55.6331 198.297 55.7186 198.253 56.1887C198.122 57.1289 197.904 58.1119 197.642 59.0521C196.899 61.1463 195.982 63.155 194.715 64.95C193.711 66.3176 192.663 67.5997 191.09 68.3262C190.26 68.7536 189.343 68.9674 188.382 68.7964C188.12 68.7537 187.989 68.8818 187.814 69.0528C186.897 70.0357 186.679 71.3607 186.242 72.5574C185.456 74.5233 184.757 76.5319 183.883 78.4551C183.315 79.8227 182.573 81.105 181.918 82.3871C181.874 82.5153 181.83 82.6007 181.787 82.7289C182.18 82.7289 182.311 82.4725 182.442 82.2589C183.053 81.1904 183.665 80.0792 184.364 79.0535C186.329 76.4038 188.95 74.6087 192.226 74.0104C193.099 73.8822 194.06 73.8822 194.934 73.8395C195.414 73.7968 195.502 73.9676 195.327 74.395C195.021 75.207 194.759 76.0191 194.322 76.7456C193.056 78.9252 191.352 80.8484 189.256 82.3015C187.64 83.4127 185.849 83.9684 183.883 83.6264C183.49 83.541 183.097 83.3701 182.748 83.2419C182.529 83.1136 182.354 83.1136 182.18 83.2845C181.83 83.4982 181.481 83.7119 181.175 83.9256C181.044 84.0111 180.913 84.1394 180.826 84.3103C179.603 86.3617 178.161 88.3276 176.589 90.1654C175.759 91.1483 174.798 92.0886 173.925 93.0716C173.837 93.1998 173.75 93.2852 173.619 93.4134C174.012 93.5416 174.187 93.3279 174.405 93.1143C175.104 92.4732 175.759 91.7467 176.545 91.1056C178.336 89.6525 180.433 88.9687 182.704 88.8832C184.844 88.755 186.853 89.1397 188.819 89.9517C189.387 90.1654 189.387 90.2936 189.081 90.8064C188.513 91.5757 187.858 92.2167 187.028 92.7723C185.368 93.9263 183.577 94.9093 181.568 95.4222C180.127 95.8068 178.686 96.0632 177.2 95.764C176.152 95.5503 175.235 95.0802 174.492 94.3109C174.318 94.14 174.143 94.0118 173.881 94.0972C173.619 94.14 173.357 94.14 173.095 94.2255C172.876 94.311 172.614 94.3965 172.44 94.5674C169.688 96.9607 166.718 98.9266 163.398 100.465C163.267 100.508 163.18 100.593 163.049 100.636C163.354 100.935 163.573 100.764 163.835 100.679C164.403 100.38 164.927 100.081 165.495 99.8241C168.072 98.542 170.78 98.4565 173.444 99.3113C175.41 99.9096 177.157 100.935 178.729 102.217C179.166 102.602 179.166 102.645 178.729 103.072C177.899 103.756 176.938 104.141 175.934 104.44C174.667 104.824 173.357 105.081 172.003 105.209C171.915 105.209 171.872 105.252 171.828 105.295C170.954 105.038 170.474 105.038 169.994 105.038Z" fill="#473729"/>
<path d="M87.298 25.9079V22.7707H78.8172V19.965C81.0124 16.1175 83.3635 12.3292 85.6666 8.82506H90.7527V19.9058H93.0078V22.7707H90.7527V25.9079H87.298ZM82.08 20.0005H87.37V11.5361H87.178C85.4987 14.0813 83.6394 17.0528 82.08 19.8111V20.0005Z" fill="#473729"/>
<path d="M98.2499 26.2038C97.0263 26.2038 96.1387 25.316 96.1387 24.144C96.1387 22.972 97.0263 22.0959 98.2499 22.0959C99.4854 22.0959 100.361 22.972 100.361 24.144C100.361 25.316 99.4854 26.2038 98.2499 26.2038Z" fill="#473729"/>
<path d="M110.017 26.2867C105.855 26.2867 102.988 24.2387 102.988 21.2791V21.2554C102.988 19.0298 104.667 17.3842 107.031 16.9225V16.8515C105.003 16.3661 103.624 14.9218 103.624 13.0632V13.0395C103.624 10.3877 106.251 8.44623 110.017 8.44623C113.772 8.44623 116.411 10.3877 116.411 13.0395V13.0632C116.411 14.9218 115.02 16.3543 113.004 16.8515V16.9225C115.355 17.3724 117.047 19.0298 117.047 21.2554V21.2791C117.047 24.2387 114.18 26.2867 110.017 26.2867ZM110.017 15.7742C111.673 15.7742 112.824 14.8035 112.824 13.4065V13.3828C112.824 11.9859 111.661 11.027 110.017 11.027C108.362 11.027 107.198 11.9859 107.198 13.3828V13.4065C107.198 14.8035 108.35 15.7742 110.017 15.7742ZM110.017 23.6823C111.913 23.6823 113.256 22.5813 113.256 21.0423V21.0186C113.256 19.4796 111.937 18.3668 110.017 18.3668C108.098 18.3668 106.767 19.4796 106.767 21.0186V21.0423C106.767 22.5813 108.11 23.6823 110.017 23.6823Z" fill="#473729"/>
</svg>
