<svg width="121" height="198" viewBox="0 0 121 198" fill="none" xmlns="http://www.w3.org/2000/svg">
<path fill-rule="evenodd" clip-rule="evenodd" d="M103.39 105.59C97.1197 109.93 93.5997 113.45 93.5997 113.45C93.5997 113.45 94.6197 113.71 97.9497 116.27C101.28 118.83 114.08 137.26 114.84 139.82C115.6 142.38 113.82 145.2 113.56 146.48C113.3 147.76 115.1 150.06 115.1 150.06C115.1 150.06 112.09 151.42 108.96 152.88C106.3 154.11 103.84 155.44 103.84 155.44L101.54 151.34C101.54 151.34 95.4197 152.83 91.9497 147.16C90.2197 148.91 90.0197 150.31 90.0197 150.31C90.0197 150.31 89.5097 152.1 90.7897 153.38C92.0697 154.66 95.2097 167.4 94.4097 173.51C93.6897 178.98 91.8297 180.26 89.5297 181.28C89.3097 183.04 89.8097 186.4 89.8097 186.4C89.8097 186.4 89.0197 186.32 83.3997 187.01C77.3997 187.75 74.6797 188.51 74.6797 188.51C74.6797 188.51 74.9397 186.46 73.9097 185.69C72.8797 184.92 69.2997 184.41 68.0197 182.62C66.7397 180.83 65.4597 173.92 63.1597 173.4C62.2697 173.2 61.4597 173.04 60.7997 172.92C60.1397 173.04 59.3297 173.2 58.4397 173.4C56.1397 173.91 54.8597 180.82 53.5797 182.62C52.2997 184.42 48.7197 184.92 47.6897 185.69C46.6597 186.46 46.9197 188.51 46.9197 188.51C46.9197 188.51 44.1997 187.74 38.1997 187.01C32.5897 186.32 31.7897 186.4 31.7897 186.4C31.7897 186.4 32.2897 183.04 32.0697 181.28C29.7597 180.26 27.9097 178.98 27.1897 173.51C26.3797 167.4 29.5297 154.66 30.8097 153.38C32.0897 152.1 31.5797 150.31 31.5797 150.31C31.5797 150.31 30.9197 148.91 29.1897 147.16C25.7197 152.82 20.0597 151.34 20.0597 151.34L17.7597 155.44C17.7597 155.44 15.2997 154.11 12.6397 152.88C9.49968 151.43 6.49967 150.06 6.49967 150.06C6.49967 150.06 8.28968 147.76 8.03968 146.48C7.78968 145.2 5.98968 142.38 6.75968 139.82C7.52968 137.26 20.3297 118.83 23.6497 116.27C26.9697 113.71 27.9997 113.45 27.9997 113.45C27.9997 113.45 24.4797 109.93 18.2097 105.59C5.21966 96.5995 0.209671 80.0695 0.719671 66.2495C1.22967 52.4295 13.9197 25.3895 21.3397 16.6895C28.7597 7.98953 45.3197 0.769531 60.4197 0.769531C60.6697 0.819531 60.9297 0.819531 61.1797 0.769531C76.2797 0.769531 92.8397 7.98953 100.26 16.6895C107.68 25.3895 120.37 52.4295 120.88 66.2495C121.39 80.0695 116.39 96.5995 103.39 105.59Z" fill="#D41857"/>
<path fill-rule="evenodd" clip-rule="evenodd" d="M89.9197 117.169L82.1097 117.429L90.1697 113.329L93.1097 113.459L93.8797 114.359L89.9097 117.179L89.9197 117.169ZM86.9997 124.669L87.3497 129.559L85.8297 130.159L86.0697 137.259L84.0697 138.969L74.7797 139.189L72.7297 137.219L72.3297 131.049L70.8797 130.729L70.4497 125.719L71.7797 124.199L85.2697 123.219L86.9897 124.669H86.9997ZM74.2097 136.779L75.7497 137.949L83.9097 137.559L84.6997 136.669L84.4797 130.689L79.5397 132.629L73.6097 131.329L74.1997 136.779H74.2097ZM73.2497 125.289L72.1897 126.359L72.5297 129.899L79.4097 131.249L85.6197 129.079L85.3397 125.629L83.9697 124.609L73.2397 125.299L73.2497 125.289ZM27.9397 114.359L28.7097 113.459L31.6497 113.329L39.7097 117.429L31.8997 117.169L27.9297 114.349L27.9397 114.359ZM30.2597 138.239L32.0497 143.869L30.5097 147.199L28.3297 146.559L29.9897 141.699L30.2497 138.239H30.2597ZM38.3797 182.769C38.3797 182.769 36.5897 183.669 34.9197 183.409C33.2497 183.149 32.4897 181.229 32.4897 181.229L34.7897 180.459L38.3697 182.759L38.3797 182.769ZM89.3397 181.229C89.3397 181.229 88.5697 183.149 86.9097 183.409C85.2497 183.669 83.4497 182.769 83.4497 182.769L87.0297 180.469L89.3297 181.239L89.3397 181.229ZM91.8297 141.689L93.4897 146.549L91.3097 147.189L89.7697 143.859L91.5597 138.229L91.8197 141.689H91.8297Z" fill="#A50A3E"/>
<path fill-rule="evenodd" clip-rule="evenodd" d="M118.259 159.61C117.389 160.79 115.109 161.94 114.089 161.42C113.469 163.34 109.049 164.03 107.929 161.11C106.209 162.68 104.799 161.19 104.359 159.93C103.699 158.05 103.379 156.49 103.759 155.07C104.609 154.05 105.679 152.83 108.409 151.64C111.139 150.45 111.969 150.22 113.999 150.04C115.769 149.88 116.609 151.6 118.089 153.44C119.569 155.28 119.139 158.41 118.269 159.6L118.259 159.61ZM76.4394 112.57C67.6394 114.26 62.2294 114.05 60.6594 113.94C59.0994 114.06 53.6794 114.26 44.8794 112.57C25.9494 108.94 16.0394 97.4999 17.9394 69.0799C19.0594 52.2199 35.8994 20.5999 60.5994 19.4199C60.5994 19.4199 60.6194 19.4199 60.6294 19.4199C60.6394 19.4199 60.6494 19.4199 60.6594 19.4199C60.6694 19.4199 60.6794 19.4199 60.6894 19.4199C60.6994 19.4199 60.7093 19.4199 60.7193 19.4199C85.4193 20.5999 102.259 52.2199 103.379 69.0799C105.279 97.4999 95.3694 108.94 76.4394 112.57ZM16.9593 159.94C16.5193 161.19 15.1494 162.68 13.3894 161.12C12.2694 164.03 7.84936 163.34 7.22936 161.43C6.20936 161.94 3.92935 160.8 3.05935 159.62C2.18935 158.44 1.75934 155.31 3.23934 153.46C4.71934 151.61 5.54933 149.9 7.32933 150.06C9.35933 150.24 10.1894 150.47 12.9194 151.66C15.6494 152.85 16.7194 154.07 17.5694 155.09C17.9494 156.51 17.6393 158.06 16.9693 159.95L16.9593 159.94ZM37.1894 148.27V154.66C34.5994 154.22 33.2693 153.93 33.2693 153.93L33.3293 147.86C33.3293 147.86 34.8494 148.04 37.1894 148.27ZM40.4094 155.18L40.3894 148.57C41.4494 148.66 42.5694 148.76 43.7294 148.85C44.4494 148.91 45.4193 148.97 46.5493 149.03V156.05C46.1393 156 45.7393 155.95 45.3593 155.89C43.4893 155.64 41.8393 155.4 40.3993 155.17L40.4094 155.18ZM31.2894 187.76C31.6494 187.22 31.9693 186.65 32.2493 186.05C32.2493 186.05 35.3993 186.1 38.6193 186.31C41.8393 186.53 46.4394 187.75 46.4394 187.75C46.2594 188.27 46.1793 188.81 46.2193 189.36C46.2893 190.24 46.7294 193.06 46.5094 194.89C45.9994 195.84 41.3193 196.81 37.5893 196.96C33.8593 197.11 28.2294 197.11 27.3494 196.52C26.4694 195.93 25.9593 194.18 26.1793 192.42C26.3993 190.66 30.7893 188.47 31.2993 187.74L31.2894 187.76ZM59.2793 116.28L62.4993 115.99L62.0593 147.95L59.4993 147.88L59.2793 116.29V116.28ZM70.2294 149.26V156.58C67.5394 156.86 64.6693 157.11 62.1093 157.25C62.0993 157.28 62.0894 157.32 62.0694 157.35C61.6194 157.35 61.1393 157.33 60.6493 157.32C60.1593 157.34 59.6794 157.35 59.2294 157.35C59.2194 157.32 59.2094 157.29 59.1894 157.25C56.6394 157.12 53.7693 156.87 51.0793 156.58V149.26C54.7793 149.44 58.6893 149.6 60.6493 149.68C62.6093 149.6 66.5194 149.44 70.2194 149.26H70.2294ZM74.7594 156.05V149.03C75.8894 148.97 76.8693 148.9 77.5793 148.85C78.7393 148.76 79.8694 148.66 80.9194 148.57L80.8993 155.18C79.4593 155.4 77.8094 155.64 75.9394 155.9C75.5594 155.95 75.1594 156 74.7494 156.06L74.7594 156.05ZM87.9794 147.86L88.0394 153.93C88.0394 153.93 86.7093 154.22 84.1193 154.66V148.27C86.4593 148.04 87.9794 147.86 87.9794 147.86ZM74.8794 187.76C74.8794 187.76 79.4794 186.54 82.6994 186.32C85.9194 186.1 89.0694 186.06 89.0694 186.06C89.3394 186.65 89.6594 187.22 90.0294 187.77C90.5394 188.5 94.9293 190.7 95.1493 192.45C95.3693 194.2 94.8594 195.96 93.9794 196.55C93.0994 197.14 87.4693 197.14 83.7393 196.99C80.0093 196.84 75.3294 195.87 74.8194 194.92C74.5994 193.09 75.0293 190.26 75.1093 189.39C75.1493 188.84 75.0794 188.3 74.8894 187.78L74.8794 187.76Z" fill="#010101"/>
<path fill-rule="evenodd" clip-rule="evenodd" d="M99.3201 71.8498C92.0301 73.5898 79.9001 76.3298 62.4301 76.4998L61.9401 112.35L59.3701 112.64L58.8801 76.4998C41.7001 76.2798 29.7301 73.5798 22.5101 71.8498C19.8101 71.1998 19.7801 69.0198 21.8301 69.2898C23.0301 69.4498 32.5301 71.7598 42.6001 73.0098C48.7001 73.7598 54.8601 73.8298 60.0501 73.8398H61.7801C66.9701 73.8398 73.1302 73.7698 79.2302 73.0098C89.3002 71.7698 98.8001 69.4498 100 69.2898C102.05 69.0198 102.02 71.1998 99.3201 71.8498ZM61.0901 72.0198H60.7501C50.8401 71.9898 39.3501 69.2398 39.3501 69.2398C39.3501 69.2398 33.9501 62.4698 35.1501 48.4698C36.3401 34.5098 51.3901 28.4198 60.7701 28.0498C60.7901 28.0498 60.8101 28.0498 60.8301 28.0498H60.8401C60.8401 28.0498 60.8902 28.0498 60.9202 28.0498C60.9502 28.0498 60.9701 28.0498 61.0001 28.0498C61.0001 28.0498 61.0002 28.0498 61.0102 28.0498C61.0302 28.0498 61.0501 28.0498 61.0701 28.0498C70.4501 28.4198 85.5001 34.5198 86.6901 48.4698C87.8801 62.4598 82.4901 69.2398 82.4901 69.2398C82.4901 69.2398 71.0001 71.9898 61.0901 72.0198Z" fill="#333333"/>
<path fill-rule="evenodd" clip-rule="evenodd" d="M44.29 35.3691H77.63V68.7091H44.29V35.3691ZM48.64 39.7191H73.28V64.3591H48.64V39.7191Z" fill="white"/>
</svg>
