<?xml version="1.0" encoding="UTF-8"?>
<svg id="Layer_2" data-name="Layer 2" xmlns="http://www.w3.org/2000/svg" viewBox="0 0 574.83 298.59">
  <defs>
    <style>
      .cls-1 {
        fill: #d3d3d3;
      }

      .cls-1, .cls-2 {
        stroke-width: 0px;
      }

      .cls-2 {
        fill: #ef0a7d;
      }
    </style>
  </defs>
  <g id="katman_1" data-name="katman 1">
    <g>
      <path class="cls-1" d="m458.58,182.77h68.25v-14.67h-82.92v82.91h82.92v-14.65h-68.25v-53.59Zm-.25-59.31c-7.6,7.6-18.1,12.32-29.65,12.32h-58.88V51.89h58.88c11.55,0,22.05,4.72,29.65,12.31,7.59,7.59,12.32,18.09,12.32,29.63s-4.73,22.03-12.32,29.64Zm-.72-29.64c0-7.94-3.26-15.17-8.5-20.41-5.24-5.25-12.47-8.5-20.42-8.5h-45.85v57.84h45.85c7.95,0,15.18-3.26,20.42-8.5,5.24-5.24,8.5-12.47,8.5-20.42Zm-154.84-.35c0,7.61-3.12,14.54-8.14,19.57-5.02,5.02-11.94,8.14-19.54,8.14s-14.54-3.11-19.57-8.14c-5.01-5.02-8.14-11.96-8.14-19.57v-40.84h-13.03v40.84c0,11.21,4.58,21.4,11.95,28.78,7.38,7.37,17.57,11.95,28.78,11.95s21.39-4.58,28.77-11.95c7.37-7.38,11.96-17.57,11.96-28.78V0h-13.04v93.48Zm73.56,143.93l-33.87-70.09h-13.97v82.75h13.97v-53.86l26.03,53.86h15.69l26.04-53.86v53.86h13.96v-82.75h-13.96l-33.88,70.09Zm-27.9-183.91h-13.03v81.72h13.03V53.49Zm-113.82,196.52h14.46l25.31-52.06,25.3,52.06h14.47l-39.77-81.79-39.77,81.79ZM125.5,110.67c0-6.72-2.96-12.8-7.73-17.17-4.63-4.26-10.98-6.89-17.92-6.89h-35.28c-3.58,0-6.8-1.32-9.1-3.42-2.17-1.98-3.51-4.68-3.51-7.61s1.34-5.63,3.51-7.61c2.3-2.12,5.52-3.42,9.1-3.42h55.23v-13.04h-55.23c-6.94,0-13.28,2.64-17.92,6.89-4.77,4.38-7.73,10.47-7.73,17.19s2.96,12.8,7.73,17.19c4.64,4.24,10.98,6.89,17.92,6.89h35.28c3.58,0,6.81,1.3,9.11,3.42,2.16,1.99,3.51,4.67,3.51,7.6s-1.35,5.64-3.51,7.61c-2.3,2.12-5.53,3.44-9.11,3.44H0v13.03h99.85c6.94,0,13.29-2.65,17.92-6.89,4.77-4.38,7.73-10.45,7.73-17.19Zm75.64,92.37l47.7,95.54h-14.81l-24.25-48.58h-54.44c-11.19,0-21.35-4.57-28.73-11.93-7.37-7.38-11.94-17.55-11.94-28.75s4.57-21.35,11.94-28.73c7.37-7.37,17.54-11.95,28.73-11.95h54.34l-17.78-35.98c-4.31,1.52-8.94,2.36-13.76,2.36-11.36,0-21.65-4.6-29.09-12.05-7.45-7.44-12.05-17.72-12.05-29.08s4.6-21.65,12.05-29.09c7.44-7.45,17.72-12.05,29.09-12.05s21.64,4.61,29.08,12.05c7.45,7.44,12.05,17.72,12.05,29.09s-4.61,21.64-12.05,29.08c-1.16,1.18-2.42,2.27-3.72,3.3l20.81,42.14-6.45,13.27h-62.52c-7.59,0-14.5,3.11-19.51,8.13-5.01,5.01-8.13,11.92-8.13,19.51s3.11,14.51,8.13,19.52c5.01,5.01,11.92,8.13,19.51,8.13h47.93l-10.44-20.91h-41.48v-13.03h49.79Zm-3.13-89.28c5.09-5.08,8.24-12.11,8.24-19.86s-3.15-14.8-8.24-19.87c-5.08-5.09-12.11-8.23-19.86-8.23s-14.8,3.14-19.87,8.23c-5.09,5.08-8.23,12.11-8.23,19.87s3.14,14.79,8.23,19.86c5.08,5.09,12.11,8.24,19.87,8.24,2.74,0,5.4-.4,7.91-1.13l-13.8-27.91h14.81l10.5,21.26c.14-.16.3-.3.45-.45Zm291.22,103.14h85.61v-14.66h-85.61v14.66Z"/>
      <path class="cls-2" d="m458.58,236.37h68.24v-19.47h-37.6v-14.66h37.6v-19.47h-68.24v53.6Zm-209.51,13.65h50.62l-25.31-52.06-25.3,52.06Zm-70.93-184.22c-7.76,0-14.79,3.15-19.86,8.24-5.09,5.08-8.24,12.11-8.24,19.86s3.15,14.8,8.24,19.88c5.08,5.09,12.11,8.22,19.86,8.22,2.75,0,5.41-.4,7.92-1.13l-13.8-27.9h14.81l10.49,21.26c.15-.15.31-.3.46-.45,5.09-5.08,8.23-12.11,8.23-19.88s-3.14-14.78-8.23-19.86c-5.08-5.09-12.11-8.24-19.87-8.24Z"/>
    </g>
  </g>
</svg>