<svg width="121" height="197" viewBox="0 0 121 197" fill="none" xmlns="http://www.w3.org/2000/svg">
<path fill-rule="evenodd" clip-rule="evenodd" d="M102.68 105.21C96.43 109.53 92.92 113.04 92.92 113.04C92.92 113.04 93.94 113.3 97.26 115.85C100.58 118.4 113.33 136.76 114.09 139.31C114.85 141.86 113.07 144.67 112.82 145.94C112.57 147.21 114.35 149.51 114.35 149.51C114.35 149.51 111.35 150.87 108.23 152.32C105.58 153.55 103.13 154.87 103.13 154.87L100.83 150.79C100.83 150.79 94.74 152.27 91.28 146.63C89.55 148.37 89.36 149.77 89.36 149.77C89.36 149.77 88.85 151.56 90.13 152.83C91.41 154.1 94.54 166.8 93.73 172.89C93.01 178.34 91.16 179.62 88.87 180.63C88.65 182.38 89.14 185.73 89.14 185.73C89.14 185.73 88.35 185.65 82.76 186.34C76.79 187.07 74.08 187.84 74.08 187.84C74.08 187.84 74.34 185.8 73.32 185.03C72.3 184.26 68.73 183.76 67.45 181.97C66.17 180.18 64.9 173.3 62.6 172.79C61.72 172.59 60.91 172.44 60.25 172.31C59.59 172.43 58.78 172.59 57.9 172.79C55.6 173.3 54.33 180.19 53.05 181.97C51.77 183.75 48.2 184.27 47.18 185.03C46.16 185.79 46.42 187.84 46.42 187.84C46.42 187.84 43.71 187.08 37.74 186.34C32.15 185.65 31.36 185.73 31.36 185.73C31.36 185.73 31.86 182.38 31.63 180.63C29.33 179.61 27.49 178.34 26.77 172.89C25.97 166.8 29.1 154.11 30.37 152.83C31.64 151.55 31.14 149.77 31.14 149.77C31.14 149.77 30.49 148.37 28.76 146.63C25.3 152.27 19.66 150.79 19.66 150.79L17.36 154.87C17.36 154.87 14.91 153.55 12.26 152.32C9.13 150.87 6.14001 149.51 6.14001 149.51C6.14001 149.51 7.93001 147.21 7.67001 145.94C7.41001 144.67 5.63001 141.86 6.39001 139.31C7.15001 136.76 19.91 118.4 23.22 115.85C26.54 113.3 27.56 113.04 27.56 113.04C27.56 113.04 24.05 109.54 17.8 105.21C4.85001 96.2495 -0.129985 79.7895 0.380015 66.0095C0.890015 52.2395 13.53 25.2995 20.93 16.6295C28.33 7.95953 44.82 0.769531 59.87 0.769531C60.12 0.819531 60.38 0.819531 60.62 0.769531C75.67 0.769531 92.17 7.95953 99.56 16.6295C106.96 25.2995 119.6 52.2395 120.11 66.0095C120.62 79.7795 115.63 96.2495 102.69 105.21H102.68Z" fill="#D41857"/>
<path fill-rule="evenodd" clip-rule="evenodd" d="M89.2695 116.75L81.4895 117.01L89.5195 112.93L92.4495 113.06L93.2195 113.95L89.2695 116.76V116.75ZM86.3595 124.22L86.7095 129.09L85.1995 129.69L85.4395 136.77L83.4495 138.48L74.1895 138.7L72.1495 136.73L71.7495 130.58L70.2995 130.26L69.8695 125.27L71.1895 123.76L84.6395 122.79L86.3495 124.23L86.3595 124.22ZM73.6095 136.28L75.1395 137.45L83.2695 137.06L84.0595 136.18L83.8395 130.22L78.9195 132.15L73.0095 130.85L73.5995 136.28H73.6095ZM72.6595 124.83L71.6095 125.9L71.9495 129.43L78.7995 130.77L84.9795 128.61L84.6995 125.17L83.3395 124.15L72.6495 124.84L72.6595 124.83ZM27.5195 113.94L28.2895 113.05L31.2195 112.92L39.2495 117L31.4695 116.74L27.5195 113.93V113.94ZM29.8295 137.73L31.6195 143.34L30.0895 146.66L27.9195 146.02L29.5795 141.17L29.8395 137.73H29.8295ZM37.9195 182.1C37.9195 182.1 36.1295 182.99 34.4795 182.74C32.8295 182.49 32.0595 180.57 32.0595 180.57L34.3595 179.8L37.9295 182.1H37.9195ZM88.6895 180.57C88.6895 180.57 87.9295 182.48 86.2695 182.74C84.6095 183 82.8295 182.1 82.8295 182.1L86.3995 179.8L88.6995 180.57H88.6895ZM91.1695 141.17L92.8295 146.02L90.6595 146.66L89.1295 143.34L90.9195 137.73L91.1695 141.17Z" fill="#A50A3E"/>
<path fill-rule="evenodd" clip-rule="evenodd" d="M117.5 159.03C116.63 160.21 114.36 161.35 113.34 160.84C112.72 162.75 108.32 163.44 107.2 160.54C105.48 162.11 104.08 160.62 103.64 159.37C102.98 157.49 102.66 155.95 103.04 154.53C103.89 153.51 104.95 152.3 107.67 151.11C110.39 149.92 111.22 149.69 113.24 149.52C115.01 149.36 115.84 151.07 117.31 152.91C118.78 154.75 118.36 157.86 117.49 159.04L117.5 159.03ZM75.8304 112.16C67.0604 113.84 61.6703 113.64 60.1103 113.52C58.5503 113.63 53.1603 113.84 44.3903 112.16C25.5203 108.54 15.6503 97.1496 17.5403 68.8296C18.6603 52.0296 35.4403 20.5296 60.0504 19.3496C60.0504 19.3496 60.0703 19.3496 60.0803 19.3496H60.1103C60.1103 19.3496 60.1303 19.3496 60.1403 19.3496C60.1403 19.3496 60.1603 19.3496 60.1703 19.3496C84.7803 20.5296 101.56 52.0296 102.68 68.8296C104.57 97.1496 94.7004 108.55 75.8304 112.16ZM16.5704 159.36C16.1304 160.61 14.7603 162.09 13.0103 160.53C11.9003 163.43 7.49034 162.75 6.87034 160.83C5.85034 161.34 3.59035 160.2 2.71035 159.02C1.83035 157.84 1.41035 154.72 2.89035 152.89C4.37035 151.06 5.19035 149.35 6.96035 149.5C8.98035 149.68 9.81035 149.9 12.5303 151.09C15.2503 152.28 16.3104 153.49 17.1604 154.51C17.5404 155.92 17.2303 157.47 16.5603 159.35L16.5704 159.36ZM36.7303 147.74V154.11C34.1403 153.67 32.8204 153.38 32.8204 153.38L32.8804 147.33C32.8804 147.33 34.4003 147.5 36.7303 147.73V147.74ZM39.9303 154.63L39.9104 148.04C40.9604 148.13 42.0804 148.23 43.2404 148.32C43.9504 148.38 44.9304 148.44 46.0504 148.5V155.5C45.6404 155.45 45.2403 155.4 44.8703 155.35C43.0103 155.1 41.3703 154.86 39.9303 154.64V154.63ZM30.8504 187.09C31.2104 186.55 31.5304 185.98 31.8004 185.39C31.8004 185.39 34.9403 185.44 38.1403 185.65C41.3503 185.87 45.9303 187.09 45.9303 187.09C45.7503 187.6 45.6704 188.15 45.7104 188.69C45.7804 189.56 46.2203 192.38 46.0003 194.2C45.4903 195.15 40.8303 196.12 37.1103 196.26C33.3903 196.4 27.7804 196.41 26.9104 195.82C26.0404 195.23 25.5304 193.49 25.7404 191.74C25.9504 189.99 30.3303 187.81 30.8403 187.08L30.8504 187.09ZM58.7404 115.87L61.9503 115.58L61.5103 147.42L58.9604 147.35L58.7404 115.87ZM69.6503 148.73V156.02C66.9703 156.3 64.1103 156.55 61.5603 156.69C61.5503 156.72 61.5404 156.76 61.5204 156.79C61.0704 156.79 60.5904 156.77 60.1004 156.76C59.6104 156.78 59.1403 156.79 58.6803 156.79C58.6703 156.76 58.6603 156.73 58.6403 156.69C56.1003 156.56 53.2404 156.31 50.5504 156.02V148.73C54.2304 148.91 58.1303 149.07 60.0903 149.15C62.0403 149.07 65.9404 148.91 69.6304 148.73H69.6503ZM74.1703 155.49V148.49C75.2903 148.43 76.2703 148.37 76.9803 148.31C78.1403 148.22 79.2603 148.12 80.3103 148.03L80.2903 154.62C78.8503 154.84 77.2104 155.08 75.3504 155.33C74.9804 155.38 74.5803 155.43 74.1703 155.48V155.49ZM87.3504 147.33L87.4104 153.38C87.4104 153.38 86.0904 153.67 83.5004 154.11V147.74C85.8304 147.51 87.3504 147.34 87.3504 147.34V147.33ZM74.3004 187.09C74.3004 187.09 78.8803 185.87 82.0903 185.65C85.3003 185.43 88.4303 185.39 88.4303 185.39C88.7003 185.98 89.0204 186.55 89.3804 187.09C89.8904 187.82 94.2603 190 94.4803 191.75C94.7003 193.5 94.1903 195.25 93.3103 195.83C92.4303 196.41 86.8204 196.41 83.1104 196.27C79.4004 196.13 74.7304 195.15 74.2204 194.21C74.0004 192.38 74.4303 189.57 74.5103 188.7C74.5503 188.16 74.4803 187.61 74.2903 187.1L74.3004 187.09Z" fill="#010101"/>
<path fill-rule="evenodd" clip-rule="evenodd" d="M98.6301 71.5892C91.3701 73.3192 79.2801 76.0592 61.8801 76.2292L61.3901 111.949L58.8301 112.229L58.3401 76.2192C41.2201 75.9992 29.3001 73.3092 22.1101 71.5892C19.4201 70.9492 19.3901 68.7692 21.4301 69.0392C22.6301 69.1992 32.0901 71.4992 42.1201 72.7392C48.2001 73.4892 54.3301 73.5592 59.5101 73.5592H61.2301C66.4001 73.5592 72.5401 73.4892 78.6201 72.7392C88.6501 71.4992 98.1101 69.1892 99.3101 69.0392C101.35 68.7692 101.32 70.9492 98.6301 71.5892ZM60.5401 71.7592H60.2001C50.3301 71.7292 38.8801 68.9892 38.8801 68.9892C38.8801 68.9892 33.5001 62.2392 34.6901 48.2992C35.8801 34.3892 50.8701 28.3192 60.2101 27.9492C60.2301 27.9492 60.2501 27.9492 60.2701 27.9492C60.2701 27.9492 60.2701 27.9492 60.2801 27.9492C60.3101 27.9492 60.3301 27.9492 60.3601 27.9492C60.3901 27.9492 60.4101 27.9492 60.4401 27.9492H60.4501C60.4501 27.9492 60.4901 27.9492 60.5101 27.9492C69.8501 28.3192 84.8501 34.3892 86.0301 48.2992C87.2201 62.2392 81.8401 68.9892 81.8401 68.9892C81.8401 68.9892 70.3901 71.7292 60.5201 71.7592H60.5401Z" fill="#333333"/>
<path fill-rule="evenodd" clip-rule="evenodd" d="M81.2796 67.0291L38.8496 67.0491L60.0496 30.2891L81.2796 67.0291ZM74.3596 62.9791H45.7696L60.0496 38.2191L74.3596 62.9791Z" fill="white"/>
</svg>
