<svg width="199" height="107" viewBox="0 0 199 107" fill="none" xmlns="http://www.w3.org/2000/svg">
<g opacity="0.9">
<path fill-rule="evenodd" clip-rule="evenodd" d="M0.740234 56.5208C0.871269 56.3035 1.08965 56.3469 1.26437 56.3904C2.79311 56.8684 4.14713 57.6941 5.4138 58.7371C7.94714 60.823 9.78163 63.3869 10.6989 66.6027C10.9173 67.3849 11.0483 68.2106 11.2667 68.9929C11.3104 69.1667 11.3977 69.3406 11.4851 69.4709C11.5288 69.4709 11.5724 69.4274 11.6161 69.4274C11.6161 69.3405 11.6161 69.2971 11.6161 69.2101C11.3104 67.4719 10.9609 65.7771 10.6989 63.9953C10.5242 62.8654 10.4805 61.779 10.3931 60.6492C10.3058 59.4758 10.3494 58.2591 10.1747 57.0857C10.0874 56.4773 9.73796 55.9558 9.47589 55.3908C9.43221 55.3039 9.34485 55.2606 9.21382 55.2606C7.55404 54.9564 6.41841 53.8699 5.54484 52.5228C4.54024 50.8714 3.88506 49.0462 3.4046 47.0907C2.88046 44.9178 2.53104 42.7015 2.61839 40.4852C2.61839 40.1376 2.66207 39.7899 2.74942 39.4422C2.83678 39.0511 2.88046 39.0511 3.18621 39.2684C5.23909 40.746 6.76784 42.6581 7.94715 44.9178C8.82071 46.5692 9.47589 48.3509 9.6506 50.263C9.78163 51.6102 9.73795 52.9573 9.78163 54.3044C9.78163 54.6521 9.86899 54.9998 9.91267 55.3475C9.91267 55.4344 9.95634 55.4778 10.0437 55.5647C10.1311 55.4344 10.1747 55.3474 10.1747 55.3039C10.2621 53.5657 10.3058 51.8709 10.4368 50.0891C10.5678 48.3943 10.7862 46.656 11.0046 44.9612C11.0483 44.5266 11.1357 44.0921 11.1793 43.6575C11.1793 43.4402 11.0483 43.2229 11.0483 43.0056C10.9609 42.6145 10.9173 42.2669 10.8299 41.8758C10.7425 41.702 10.6552 41.4847 10.4805 41.3544C9.30117 40.7025 8.55864 39.703 8.0345 38.4862C7.46668 37.2259 7.24829 35.9222 7.20461 34.5751C7.11726 32.8802 7.07357 31.142 7.11725 29.4471C7.20461 27.7958 7.46668 26.2314 8.0345 24.7104C8.07818 24.58 8.16553 24.5366 8.25289 24.4062C8.34025 24.4931 8.4276 24.5366 8.51496 24.6235C9.82531 26.1879 10.8736 27.9696 11.4851 29.9252C11.9219 31.3158 12.1403 32.7934 12.2276 34.2709C12.315 36.5741 11.8782 38.8338 11.354 41.0501C11.2667 41.3977 11.3104 41.702 11.5288 42.0496C11.6161 41.7889 11.6598 41.615 11.7472 41.3978C12.4023 38.0081 13.4069 34.7054 14.7609 31.5331C15.023 30.8812 14.8483 30.3163 14.9357 29.6644C15.023 29.2299 14.8046 28.9257 14.4989 28.6215C13.4943 27.622 12.9702 26.2748 12.8391 24.8842C12.5334 22.3202 12.9701 19.8866 13.5816 17.3661C13.9311 15.9755 14.3678 14.5414 14.9793 13.2377C15.1977 12.8031 15.4598 12.3686 15.6782 11.9775C15.7219 11.8906 15.8092 11.8472 15.9403 11.6733C16.115 12.0644 16.2897 12.3686 16.4644 12.7163C17.2069 14.3676 17.6437 16.1493 17.7748 17.9311C17.9932 20.9296 17.6437 23.8412 16.5081 26.6224C16.246 27.2743 15.8966 27.8828 15.5908 28.5346C15.4598 28.7953 15.4598 29.0995 15.4161 29.3602C15.5035 29.4037 15.5472 29.4037 15.5908 29.4471C15.7219 29.2299 15.8092 29.056 15.9403 28.7953C16.7265 27.2308 17.469 25.6229 18.3426 24.1019C19.3035 22.4506 20.4391 20.8427 21.4001 19.1914C21.5748 18.8437 21.5748 18.4091 21.7058 18.0615C21.7495 17.9746 21.7058 17.8877 21.7495 17.7573C21.8368 17.3662 21.7932 17.0619 21.4874 16.7143C20.8322 15.9755 20.5702 15.0195 20.4828 14.02C20.1771 10.6303 21.3564 7.71876 23.0598 4.93752C23.846 3.63382 24.7196 2.50388 25.8552 1.50437C26.2047 1.15671 26.3794 1.20023 26.4231 1.67826C26.5541 2.76468 26.6414 3.8511 26.6414 4.93752C26.6851 7.71876 26.161 10.4131 25.0253 12.977C24.3702 14.4111 23.4966 15.6714 22.4483 16.8882C22.0989 17.2793 22.0989 17.6269 22.0989 18.1919C22.2736 18.0615 22.4047 17.9746 22.4483 17.8442C23.9771 15.8017 25.6368 13.8896 27.4276 12.0644C28.2139 11.2822 29.0438 10.5434 29.7863 9.76117C29.9173 9.6308 30.0047 9.50047 30.0047 9.3701C29.8736 7.71874 30.4851 6.41505 31.4897 5.15481C32.7127 3.72073 34.2852 2.76468 35.9886 2.11283C37.2553 1.6348 38.5656 1.15676 39.8323 0.678732C39.9196 0.635275 39.9633 0.635296 40.0943 0.591839C40.0943 0.72221 40.138 0.852538 40.0943 0.982908C39.3081 3.63377 38.0415 5.98049 35.9449 7.76222C34.3725 9.06592 32.5817 9.8481 30.5288 9.89156C30.3978 9.89156 30.1794 9.97854 30.0483 10.0654C29.0001 11.065 27.9081 12.021 26.9035 13.0639C25.9426 14.02 25.1127 15.1064 24.2391 16.1494C24.1081 16.2798 24.0644 16.4101 23.9771 16.5405C24.4139 16.7578 24.807 16.6274 24.9817 16.2363C25.5932 14.6719 26.7725 13.8027 28.3012 13.2377C29.7426 12.7162 31.1403 12.7163 32.6254 12.9335C33.8484 13.0639 34.984 13.3247 36.207 13.4985C36.2944 13.4985 36.338 13.542 36.4254 13.542C36.7748 13.6289 36.7748 13.7158 36.5564 13.9331C35.9886 14.5415 35.4644 15.1934 34.853 15.7148C32.9311 17.3662 30.6598 18.1919 28.0828 17.9746C27.0782 17.8877 26.161 17.5834 25.2874 17.0619C25.0254 16.9316 24.8069 16.8446 24.5012 16.9315C24.3265 17.0185 24.1081 17.0619 23.8897 17.0619C23.5403 17.0619 23.3656 17.1924 23.1908 17.4531C21.269 20.0605 19.5219 22.8417 18.0805 25.7533C17.9932 25.8837 17.9495 25.9707 17.9058 26.1445C17.9058 26.1879 17.9058 26.2313 17.9058 26.2748C18.3426 26.4051 18.7794 26.1445 18.8667 25.7968C19.3035 23.537 20.7885 22.1899 22.8414 21.4511C24.2391 20.9731 25.6368 20.7992 27.1219 20.7558C28.1265 20.7123 29.1311 20.6254 30.1357 20.582C30.4851 20.5385 30.5725 20.6689 30.3978 20.9731C28.607 23.9281 26.2483 26.1444 22.7104 26.8397C21.5748 27.057 20.4828 26.9701 19.3909 26.6224C19.0851 26.4921 18.823 26.492 18.561 26.7093C18.3863 26.8397 18.2115 26.8832 17.9932 26.9266C17.5564 26.9701 17.4253 27.2743 17.2069 27.5785C16.0713 30.0121 15.0667 32.4456 14.2805 34.9661C13.8874 36.1829 13.538 37.4432 13.1885 38.66C13.1449 38.7903 13.1448 38.8773 13.1448 39.0076C13.7127 38.9642 13.9311 38.66 13.9311 38.182C13.9311 36.0092 14.7609 34.2274 16.4207 32.8368C17.8184 31.7069 19.3908 30.9247 21.0069 30.2729C22.0989 29.8383 23.1908 29.4037 24.2828 28.9692C24.4138 28.9257 24.5012 28.8822 24.7196 28.8388C24.5886 29.2299 24.5449 29.534 24.4139 29.8817C23.846 31.4896 23.1909 33.0106 22.1426 34.3578C20.7012 36.3568 18.8667 37.9647 16.4207 38.66C15.8092 38.8338 15.0667 38.7904 14.4115 38.9207C14.1931 38.9642 14.0184 39.0511 13.8437 39.138C13.7127 39.2249 13.5816 39.3988 13.4506 39.4857C12.8828 39.7464 12.6644 40.2244 12.6207 40.8328C12.315 42.5711 11.9656 44.2659 11.6598 46.0476C11.4414 47.3079 11.3104 48.6116 11.223 49.8718C11.092 51.0452 11.092 52.262 11.0483 53.4353C11.0483 53.5222 11.0483 53.6092 11.092 53.6961C11.4851 53.6092 11.8782 53.1312 11.7908 52.74C11.2667 50.0892 12.0529 47.7425 13.5816 45.6566C14.8046 43.9617 16.3771 42.7015 17.9932 41.4413C18.692 40.9198 19.3472 40.3548 20.046 39.7899C20.1334 39.703 20.2207 39.6595 20.3955 39.5291C20.3955 40.0071 20.4391 40.3983 20.3955 40.7459C20.0897 43.7444 19.3035 46.5692 17.5564 49.0462C16.246 50.9583 14.6299 52.4793 12.4023 53.1746C12.2713 53.2181 12.0966 53.3918 12.0092 53.5657C11.8345 53.783 11.7035 54.0872 11.4851 54.261C11.1357 54.5652 11.092 54.9128 11.1357 55.3039C11.2667 57.303 11.2667 59.3455 11.4414 61.3445C11.6598 63.5174 12.0529 65.6467 12.4023 67.8195C12.4023 67.9499 12.4897 68.0368 12.5334 68.1672C13.0138 67.7761 13.1012 67.2546 12.8391 66.7766C12.3587 66.0379 12.2713 65.1687 12.2276 64.343C12.1839 62.5178 12.7081 60.823 13.538 59.1717C14.5862 57.1727 15.984 55.3909 17.338 53.5657C17.7748 53.0007 18.1678 52.4358 18.6046 51.8274C18.692 51.697 18.7357 51.6536 18.9104 51.4363C18.9977 51.6536 19.0414 51.8274 19.0414 51.9578C19.3472 54.0003 19.3472 56.0427 18.9541 58.0418C18.6047 59.9539 17.9058 61.7791 16.9449 63.5174C16.1587 64.908 15.1104 66.0813 13.8437 66.9939C13.6253 67.1243 13.4943 67.385 13.3632 67.6458C13.1885 68.0369 13.0138 68.3845 12.8391 68.7756C12.7518 68.9494 12.7081 69.1667 12.7518 69.3405C13.7564 73.6428 15.2851 77.8146 17.2943 81.7257C17.3816 81.8561 17.4253 81.943 17.5127 82.1168C17.7747 81.8126 17.8621 81.2477 17.6437 81.0304C16.6391 80.0309 16.3334 78.7272 16.0713 77.4235C15.6782 75.5549 16.0276 73.7732 16.5081 71.9914C17.1196 69.6882 18.0805 67.5154 18.9104 65.2556C19.0414 64.9514 19.1725 64.6038 19.3035 64.2561C19.4345 64.4299 19.5219 64.5603 19.5656 64.6907C20.3518 66.5159 20.8322 68.3845 21.0069 70.3401C21.2253 72.7736 20.9633 75.2072 20.2207 77.5973C19.8713 78.6403 19.4345 79.5964 18.7794 80.4655C18.3862 81.0305 18.2115 81.5953 18.0805 82.2472C17.9495 82.899 18.1242 83.3771 18.4299 83.9421C20.2644 87.071 22.361 89.939 24.807 92.5464C24.938 92.6768 25.1127 92.7637 25.2874 92.8941C25.3311 92.7203 25.3748 92.503 25.3311 92.2858C25.2874 92.1554 25.2001 91.8946 25.069 91.8512C23.9771 91.2428 23.3219 90.2868 22.7104 89.2438C22.1426 88.2443 21.8368 87.1144 21.7932 85.9845C21.7495 84.8546 21.6621 83.6812 21.7058 82.5514C21.7932 81.1608 22.0552 79.6833 22.1863 78.2927C22.2736 77.5105 22.361 76.7282 22.4483 75.9026C22.4483 75.7722 22.5357 75.5983 22.5794 75.3376C22.7978 75.5549 22.9288 75.6852 23.0598 75.8156C24.9817 78.2491 26.2483 81.0305 26.6414 84.1594C26.9035 86.1584 26.8598 88.1574 26.292 90.1129C26.2047 90.4171 26.1173 90.7647 25.9863 91.0255C25.7679 91.5469 25.7679 92.0685 25.7242 92.5899C25.7242 93.2852 25.9426 93.8067 26.5104 94.2847C29.2621 96.7617 32.2323 98.8478 35.5518 100.456C35.6829 100.543 35.9012 100.76 36.0323 100.499C36.1633 100.325 35.9012 99.8473 35.6828 99.8038C33.1495 99.2823 31.7955 97.4571 30.9219 95.1973C30.2667 93.5025 29.9173 91.7208 29.6989 89.939C29.5242 88.7222 29.3058 87.5054 29.1311 86.2452C29.0874 86.1148 29.1311 85.9845 29.1311 85.8541C29.2621 85.8976 29.4368 85.8541 29.5242 85.941C31.6644 87.1144 33.3679 88.7223 34.5472 90.9386C35.1587 92.0684 35.6392 93.1983 35.9886 94.4151C36.338 95.5884 36.4254 96.8488 36.338 98.0655C36.2943 98.9347 36.207 99.7169 36.4691 100.543C36.6001 100.847 36.6875 101.021 36.9932 101.151C39.5265 102.194 42.1036 103.02 44.7679 103.454C45.2047 103.541 45.4231 103.758 45.5105 104.193C45.5541 104.497 45.4231 104.584 45.161 104.584C42.7151 104.193 40.3564 103.628 38.0852 102.672C37.2989 102.368 36.6875 102.628 35.9886 102.759C35.8576 102.802 35.7702 102.889 35.6828 103.063C34.7656 104.801 33.3242 105.757 31.4897 106.192C30.7035 106.366 29.9173 106.453 29.1311 106.583C29.0438 106.583 29.0001 106.626 28.9127 106.67C28.4323 106.67 27.9518 106.67 27.515 106.67C27.4277 106.626 27.384 106.583 27.3403 106.583C25.9863 106.453 24.6759 106.192 23.4092 105.801C22.4046 105.453 21.4 105.105 20.5702 104.41C20.1334 104.019 20.1334 103.976 20.5702 103.585C22.1426 102.281 23.8897 101.238 25.8552 100.629C28.607 99.7603 31.2714 99.8472 33.8047 101.151C34.3725 101.412 34.8966 101.759 35.4645 102.02C35.7265 102.15 35.9449 102.281 36.2507 101.977C36.1196 101.89 35.9886 101.846 35.9012 101.803C32.6254 100.282 29.6116 98.2827 26.8598 95.8057C26.6851 95.6753 26.4231 95.545 26.2047 95.4581C25.9426 95.3712 25.6805 95.3712 25.4185 95.3277C25.1564 95.2843 24.9817 95.3712 24.807 95.545C24.0644 96.3707 23.1472 96.8487 22.0989 97.0225C20.6138 97.3267 19.1288 97.1094 17.7311 96.6748C15.7219 96.1534 13.9747 95.1539 12.2713 93.9805C11.4851 93.4156 10.8299 92.8073 10.2184 91.9816C9.86898 91.4601 9.86899 91.3297 10.4805 91.1124C12.4023 90.2868 14.4552 89.9391 16.5954 90.026C18.9104 90.1564 20.9633 90.8082 22.7541 92.2858C23.5403 92.9376 24.1955 93.6329 24.8943 94.3282C25.069 94.502 25.2437 94.7628 25.6805 94.6324C25.5495 94.502 25.5058 94.3716 25.3748 94.2847C24.5012 93.3287 23.5403 92.3727 22.7104 91.3297C21.138 89.4611 19.7403 87.462 18.4736 85.3761C18.3862 85.2457 18.2989 85.1154 18.1242 84.985C17.7748 84.7677 17.4253 84.5504 17.1196 84.3331C16.9449 84.2028 16.7702 84.2027 16.5518 84.2896C16.2023 84.42 15.7655 84.6374 15.4161 84.6808C13.4506 85.0719 11.6598 84.5069 10.0437 83.3336C7.90347 81.8561 6.28737 79.9005 4.97702 77.6842C4.54024 76.9455 4.27817 76.1198 3.97242 75.2941C3.84139 74.8595 3.88506 74.6857 4.36553 74.7291C5.28277 74.7726 6.20002 74.7727 7.07358 74.903C10.3495 75.5114 12.9702 77.3366 14.9357 80.031C15.6782 81.0305 16.246 82.2038 16.8575 83.2902C16.9885 83.551 17.1196 83.7682 17.5127 83.7682C17.469 83.6378 17.4253 83.5074 17.3816 83.4205C16.7265 82.0733 15.9839 80.7697 15.4161 79.4225C14.5862 77.4669 13.8 75.4679 13.0575 73.4254C12.5771 72.2086 12.4023 70.8615 11.4851 69.862C11.2667 69.6447 11.092 69.5578 10.7862 69.5578C10.3058 69.6013 9.82531 69.6013 9.34485 69.4709C7.90346 69.1667 6.76783 68.2976 5.8069 67.1677C3.53563 64.5603 2.09425 61.4748 1.22068 58.1286C1.08965 57.7375 1.04598 57.3465 0.958626 56.9988C0.740234 56.9988 0.740234 56.738 0.740234 56.5208ZM169.994 106.54C169.426 106.453 168.858 106.409 168.29 106.279C166.63 105.975 165.058 105.366 163.922 104.019C163.66 103.715 163.485 103.367 163.267 103.02C163.18 102.889 163.136 102.759 163.049 102.759C162.437 102.585 161.826 102.237 161.171 102.498C158.768 103.411 156.279 104.106 153.745 104.454C153.439 104.497 153.352 104.367 153.396 104.062C153.439 103.671 153.658 103.411 154.095 103.324C156.803 102.889 159.38 102.063 161.869 101.021C162.219 100.89 162.306 100.673 162.437 100.369C162.699 99.5864 162.656 98.8043 162.568 98.022C162.394 95.5885 163.005 93.3721 164.097 91.2427C165.276 88.9395 167.023 87.2013 169.251 85.941C169.382 85.8541 169.6 85.8107 169.775 85.7672C169.775 85.9411 169.862 86.1583 169.819 86.2887C169.469 88.2008 169.207 90.1998 168.814 92.1119C168.508 93.7198 168.072 95.2843 167.242 96.6314C166.499 97.8482 165.495 98.8042 164.184 99.4126C163.966 99.543 163.704 99.5431 163.442 99.5865C163.005 99.63 162.83 99.9776 162.961 100.456C163.136 100.369 163.311 100.325 163.529 100.238C166.761 98.6739 169.688 96.6314 172.352 94.2413C172.92 93.7198 173.226 93.1984 173.182 92.4162C173.138 91.8947 173.138 91.4166 172.964 90.9386C172.308 89.2437 172.09 87.462 172.177 85.6368C172.308 82.2907 173.313 79.2922 175.191 76.5544C175.453 76.1633 175.759 75.859 176.021 75.5114C176.108 75.4245 176.196 75.381 176.371 75.2072C176.458 75.5983 176.502 75.9025 176.502 76.2067C176.676 77.5974 176.851 79.0314 177.026 80.422C177.157 81.8126 177.288 83.2467 177.2 84.6808C177.157 85.8107 177.069 86.8971 176.676 87.9401C176.24 89.1569 175.584 90.2868 174.58 91.1124C174.405 91.2428 174.187 91.4166 173.968 91.5035C173.619 91.6773 173.4 92.1553 173.575 92.5464C173.619 92.5899 173.75 92.6769 173.794 92.6334C173.925 92.5465 174.056 92.4161 174.143 92.2858C176.72 89.5914 178.86 86.5494 180.738 83.3336C180.913 82.986 181 82.6818 180.913 82.2907C180.782 81.943 180.782 81.5954 180.738 81.2043C180.695 81.0739 180.651 80.9 180.564 80.8131C178.948 78.7272 178.205 76.2937 177.943 73.7297C177.594 70.5574 178.118 67.4719 179.384 64.5603C179.472 64.4299 179.515 64.2995 179.646 64.1257C179.734 64.2561 179.777 64.2995 179.821 64.4299C180.564 66.342 181.306 68.2106 181.961 70.1662C182.529 71.7741 182.966 73.382 183.053 75.1203C183.184 76.4675 182.879 77.8146 182.442 79.0748C182.18 79.7701 181.874 80.4221 181.35 80.9001C181.132 81.1174 181.131 81.5953 181.394 82.0299C181.525 81.8995 181.568 81.7692 181.656 81.6388C182.748 79.466 183.752 77.2931 184.495 74.9899C185.106 73.0778 185.63 71.2091 186.154 69.297C186.198 69.1232 186.154 68.8625 186.067 68.6452C185.936 68.2541 185.718 67.863 185.543 67.4719C185.412 67.298 185.325 67.0373 185.15 66.9069C183.359 65.6901 182.18 63.9519 181.263 62.0398C180.476 60.3449 179.952 58.5198 179.777 56.6077C179.646 54.9998 179.646 53.3919 179.909 51.784C179.909 51.6536 179.952 51.5666 179.996 51.4797C179.996 51.4363 180.04 51.4364 180.083 51.3494C180.171 51.4364 180.214 51.4798 180.258 51.5232C181.612 53.3919 183.053 55.217 184.364 57.1291C185.368 58.5197 186.111 60.0842 186.504 61.7356C186.81 63.0393 186.897 64.2995 186.548 65.6032C186.417 65.9509 186.329 66.2551 186.154 66.5158C185.936 66.82 185.892 67.0808 186.067 67.4285C186.154 67.5588 186.198 67.7761 186.373 68.0368C186.504 67.8195 186.548 67.7327 186.548 67.6458C186.897 65.7337 187.203 63.7781 187.465 61.866C187.771 59.5193 187.858 57.1727 187.814 54.826C187.814 54.6522 187.683 54.4348 187.596 54.3044C187.509 54.174 187.334 54.0437 187.246 53.9134C186.941 53.3484 186.504 53.0007 185.936 52.7834C184.189 52.175 182.922 50.9149 181.787 49.4808C180.083 47.221 179.079 44.657 178.685 41.8323C178.554 41.1805 178.554 40.4417 178.467 39.7899C178.467 39.6595 178.511 39.5726 178.511 39.3988C178.642 39.4857 178.729 39.5291 178.817 39.5726C180.258 40.7025 181.656 41.8323 183.053 43.0056C184.713 44.4832 186.154 46.1781 186.853 48.3944C187.246 49.7415 187.465 51.0887 187.115 52.5228C186.984 52.9139 187.29 53.3484 187.814 53.5657C187.814 53.3484 187.814 53.1746 187.814 52.9573C187.683 51.3929 187.596 49.8719 187.465 48.3075C187.246 45.787 186.81 43.3099 186.242 40.7894C186.154 40.5287 186.111 40.2679 186.067 40.0072C186.067 39.9637 186.067 39.9637 186.023 39.9203C185.587 39.4422 185.063 39.0077 184.495 38.747C181.83 38.8773 179.777 37.5736 177.987 35.7919C176.108 33.9667 174.973 31.6634 174.23 29.2299C174.187 29.0995 174.187 29.0126 174.143 28.8388C174.274 28.8822 174.405 28.8387 174.492 28.8822C176.152 29.534 177.899 30.2294 179.559 30.9681C180.869 31.5765 182.092 32.3153 183.097 33.4017C184.364 34.7489 185.019 36.3568 184.975 38.2254C184.975 38.6165 185.194 38.8773 185.761 38.9642C185.761 38.8339 185.761 38.7034 185.718 38.5731C184.713 34.7054 183.359 31.0116 181.656 27.4047C181.525 27.1005 181.306 26.9701 180.957 26.7528C180.214 26.3617 179.515 26.4487 178.773 26.6659C177.113 27.1005 175.541 26.6659 174.012 26.0141C171.872 25.058 170.256 23.4501 168.945 21.4945C168.814 21.2772 168.64 21.0599 168.552 20.8427C168.377 20.5385 168.421 20.4516 168.814 20.4516C169.644 20.495 170.518 20.582 171.391 20.582C172.833 20.6689 174.187 20.7558 175.584 21.1903C176.764 21.538 177.812 22.0595 178.685 22.9286C179.428 23.6674 179.908 24.5799 180.083 25.6229C180.171 26.0575 180.607 26.2748 181.088 26.1879C181.044 26.0575 180.957 25.9272 180.957 25.7968C179.472 22.8417 177.725 20.017 175.715 17.3661C175.584 17.1488 175.366 17.1055 175.148 17.0185C174.361 16.8013 173.706 17.0619 173.007 17.3661C170.736 18.3656 168.421 18.1049 166.237 17.0619C164.708 16.3666 163.442 15.2802 162.437 13.9331C162.175 13.5854 162.219 13.5419 162.612 13.455C164.315 13.1943 166.062 12.8467 167.81 12.7598C169.863 12.6294 171.741 13.1943 173.182 14.8457C173.488 15.1934 173.706 15.6279 173.925 16.019C174.187 16.497 174.361 16.6274 174.973 16.4536C174.711 16.1059 174.449 15.8018 174.187 15.4976C172.833 13.8462 171.391 12.3251 169.819 10.8476C169.469 10.4999 169.076 10.1958 168.727 9.93506C168.596 9.84815 168.508 9.80467 168.377 9.80467C165.713 9.71775 163.573 8.5444 161.782 6.6323C160.297 5.02439 159.336 3.11229 158.768 0.982908C158.725 0.852538 158.725 0.722167 158.725 0.54834C159.161 0.67871 159.511 0.852601 159.86 0.939515C161.214 1.461 162.612 1.939 163.966 2.5474C165.757 3.37308 167.285 4.58983 168.246 6.41501C168.727 7.32761 168.945 8.24024 168.858 9.28321C168.858 9.41358 168.945 9.63082 169.033 9.67427C171.741 12.1079 174.143 14.8457 176.371 17.7573C176.458 17.8877 176.502 18.0181 176.676 18.105C176.807 17.6269 176.807 17.2357 176.458 16.9315C174.754 15.0194 173.531 12.8901 172.876 10.413C172.352 8.45746 172.09 6.41503 172.177 4.37256C172.221 3.45997 172.308 2.5474 172.396 1.67826C172.44 1.28715 172.571 1.24363 172.92 1.50437C174.492 2.89499 175.584 4.58983 176.589 6.41501C177.375 7.89255 177.943 9.45701 178.249 11.1084C178.554 12.7163 178.598 14.2807 177.987 15.8017C177.812 16.1928 177.506 16.5839 177.288 16.975C177.2 17.1054 177.157 17.3227 177.157 17.4965C177.157 17.8876 177.288 18.2353 177.288 18.6264C177.331 19.061 177.55 19.3652 177.768 19.7128C179.777 22.581 181.481 25.6229 183.01 28.7953C183.141 29.0126 183.228 29.2299 183.403 29.4471C183.534 29.0995 183.49 28.7953 183.272 28.4911C182.486 27.1439 181.961 25.7098 181.612 24.2323C181.175 22.3637 181.044 20.4951 181.131 18.5395C181.263 16.584 181.699 14.6718 182.442 12.8466C182.573 12.4555 182.791 12.1513 182.966 11.7602C183.01 11.7602 183.053 11.7602 183.097 11.7602C183.315 12.1513 183.534 12.4555 183.752 12.8466C184.451 14.1938 184.975 15.5844 185.281 17.0619C185.587 18.4526 185.849 19.7998 186.067 21.2338C186.329 23.1025 186.329 24.9276 185.674 26.7093C185.325 27.535 184.888 28.2738 184.233 28.8822C184.102 29.0125 184.014 29.2733 184.014 29.4471C183.971 29.9686 183.927 30.4901 184.014 30.9681C184.058 31.3592 184.233 31.7069 184.364 32.098C185.543 35.14 186.504 38.2254 187.159 41.3978C187.203 41.5716 187.29 41.7889 187.334 42.0931C187.596 41.7455 187.64 41.4412 187.552 41.1805C187.29 39.9637 186.984 38.7469 186.81 37.4866C186.548 35.9657 186.548 34.4012 186.722 32.8368C186.984 30.577 187.727 28.4477 188.95 26.579C189.387 25.9272 189.867 25.2753 190.391 24.6235C190.566 24.4062 190.741 24.4496 190.784 24.7538C191.046 25.6664 191.352 26.6225 191.483 27.5351C191.833 29.621 191.833 31.7069 191.745 33.7928C191.614 35.4007 191.483 36.9652 190.872 38.4862C190.348 39.7464 189.605 40.8329 188.338 41.4413C188.207 41.5282 188.033 41.702 187.989 41.8323C187.858 42.3538 187.683 42.8753 187.596 43.4402C187.552 43.6575 187.596 43.9183 187.64 44.1356C187.814 45.5696 188.033 47.0472 188.207 48.4813C188.338 49.8719 188.382 51.219 188.469 52.6096C188.513 53.5222 188.557 54.4348 188.6 55.3039C188.6 55.3474 188.644 55.4344 188.688 55.4778C188.994 55.304 189.037 54.9997 189.037 54.739C188.994 54.0002 188.994 53.2615 188.994 52.5228C188.95 48.5682 190.26 45.1351 192.706 42.0931C193.492 41.0502 194.497 40.1375 195.545 39.3553C195.895 39.0511 196.069 39.1381 196.113 39.6161C196.157 40.5287 196.244 41.4847 196.201 42.3973C196.069 44.3963 195.72 46.3519 195.152 48.3075C194.628 49.9588 194.06 51.5666 193.056 53.0007C192.269 54.0871 191.396 54.9563 190.042 55.2171C189.518 55.3474 189.299 55.6081 189.125 56.0427C188.775 56.8249 188.688 57.6506 188.644 58.4763C188.6 59.6497 188.513 60.823 188.426 61.9964C188.251 63.6477 188.033 65.3425 187.814 66.9939C187.683 67.6892 187.509 68.3845 187.377 69.1232C187.334 69.2536 187.334 69.3406 187.334 69.4709C187.377 69.4709 187.421 69.5143 187.465 69.5143C187.552 69.3839 187.64 69.2102 187.683 69.0364C188.033 67.7761 188.295 66.4724 188.731 65.299C190.042 61.8659 192.4 59.302 195.545 57.4334C196.201 57.0423 196.943 56.7815 197.686 56.4773C198.122 56.3034 198.297 56.3904 198.253 56.8684C198.122 57.8245 197.904 58.824 197.642 59.78C196.899 61.9094 195.982 63.9519 194.715 65.7771C193.711 67.1677 192.663 68.4714 191.09 69.2101C190.26 69.6447 189.343 69.862 188.382 69.6882C188.12 69.6448 187.989 69.7751 187.814 69.9489C186.897 70.9484 186.679 72.2956 186.242 73.5124C185.456 75.5114 184.757 77.5538 183.883 79.5094C183.315 80.9 182.573 82.2038 181.918 83.5075C181.874 83.6379 181.83 83.7247 181.787 83.8551C182.18 83.8551 182.311 83.5944 182.442 83.3771C183.053 82.2907 183.665 81.1608 184.364 80.1179C186.329 77.4235 188.95 75.5983 192.226 74.9899C193.099 74.8596 194.06 74.8596 194.934 74.8161C195.414 74.7727 195.502 74.9464 195.327 75.381C195.021 76.2067 194.759 77.0323 194.322 77.7711C193.056 79.9874 191.352 81.943 189.256 83.4205C187.64 84.5504 185.849 85.1154 183.883 84.7677C183.49 84.6808 183.097 84.507 182.748 84.3766C182.529 84.2463 182.354 84.2462 182.18 84.42C181.83 84.6373 181.481 84.8546 181.175 85.0719C181.044 85.1588 180.913 85.2892 180.826 85.4631C179.603 87.549 178.161 89.548 176.589 91.4166C175.759 92.4161 174.798 93.3722 173.925 94.3717C173.837 94.5021 173.75 94.5889 173.619 94.7193C174.012 94.8496 174.187 94.6324 174.405 94.4151C175.104 93.7633 175.759 93.0245 176.545 92.3727C178.336 90.8951 180.433 90.1998 182.704 90.1129C184.844 89.9826 186.853 90.3737 188.819 91.1993C189.387 91.4166 189.387 91.547 189.081 92.0685C188.513 92.8507 187.858 93.5025 187.028 94.0674C185.368 95.2408 183.577 96.2404 181.568 96.7618C180.127 97.153 178.686 97.4136 177.2 97.1094C176.152 96.8921 175.235 96.4141 174.492 95.6319C174.318 95.4581 174.143 95.3277 173.881 95.4146C173.619 95.4581 173.357 95.4581 173.095 95.545C172.876 95.6319 172.614 95.7189 172.44 95.8927C169.688 98.3263 166.718 100.325 163.398 101.89C163.267 101.933 163.18 102.02 163.049 102.064C163.354 102.368 163.573 102.194 163.835 102.107C164.403 101.803 164.927 101.499 165.495 101.238C168.072 99.9341 170.78 99.8472 173.444 100.716C175.41 101.325 177.157 102.368 178.729 103.671C179.166 104.063 179.166 104.106 178.729 104.541C177.899 105.236 176.938 105.627 175.934 105.931C174.667 106.322 173.357 106.583 172.003 106.713C171.915 106.713 171.872 106.757 171.828 106.8C170.954 106.54 170.474 106.54 169.994 106.54ZM104.695 16.4536C104.826 18.7568 103.865 20.4951 102.03 21.7988C101.375 22.2334 100.589 22.4506 99.8026 22.4071C99.6715 22.4071 99.6278 22.3637 99.6278 22.2334C99.5405 21.1035 99.8462 20.104 100.414 19.1914C101.244 17.8442 102.423 17.0185 103.865 16.584C103.996 16.5405 104.214 16.497 104.345 16.4536C104.476 16.4536 104.607 16.4536 104.695 16.4536ZM109.324 25.2318C105.437 27.3178 105.655 33.4887 109.98 35.3573C109.936 35.4877 109.892 35.5746 109.849 35.7484C109.193 37.7039 108.145 39.4422 106.747 40.9632C106.18 41.5716 105.568 42.0061 104.782 42.1365C104.127 42.2669 103.472 42.0931 102.86 41.8758C102.249 41.702 101.637 41.4413 101.026 41.224C100.021 40.9632 99.1037 41.137 98.1864 41.5282C97.575 41.7889 96.9635 42.0062 96.3083 42.18C95.7405 42.3104 95.26 42.1366 94.7359 41.8758C94.037 41.4847 93.5129 40.9632 93.0324 40.3548C92.2462 39.3553 91.5037 38.2689 90.8922 37.0956C90.1496 35.5746 89.6692 33.9667 89.4508 32.3153C89.3198 31.1855 89.2761 30.0121 89.4071 28.8822C89.6692 27.1004 90.368 25.4925 91.7221 24.3192C92.9451 23.1893 94.4301 22.6678 96.0899 22.7982C96.7887 22.8851 97.4439 23.1459 98.0991 23.4067C98.4922 23.537 98.8853 23.7108 99.3221 23.7977C99.6278 23.9281 99.8899 23.9281 100.239 23.7977C100.895 23.5805 101.55 23.3632 102.161 23.1025C104.083 22.4072 105.918 22.6244 107.665 23.6674C108.363 24.015 108.844 24.58 109.324 25.2318ZM77.0025 51.9578C80.4094 51.9578 83.0738 54.6522 83.0738 58.0853C83.0738 61.5183 80.4094 64.2126 76.9588 64.2126C73.5519 64.2126 70.9312 61.5183 70.9312 58.0418C70.9312 54.5652 73.5956 51.9143 77.0025 51.9578ZM73.2025 58.0853C73.2025 60.3016 74.7749 61.9529 76.9588 61.9529C79.1427 61.9529 80.7151 60.3016 80.7151 58.0853C80.7151 55.869 79.0991 54.2175 76.9588 54.2175C74.8186 54.2175 73.2025 55.869 73.2025 58.0853ZM135.269 63.9519C135.269 59.9974 135.269 56.1297 135.269 52.1751C135.4 52.1751 135.444 52.1316 135.531 52.1316C136.973 52.1316 138.458 52.1316 139.899 52.1316C142.957 52.175 145.403 54.5652 145.446 57.6941C145.534 59.7365 144.879 61.4314 143.306 62.7351C142.389 63.4739 141.384 63.865 140.205 63.9084C138.589 63.9519 136.973 63.9084 135.357 63.9084C135.357 63.9953 135.313 63.9954 135.269 63.9519ZM137.541 61.7356C138.545 61.7356 139.462 61.779 140.423 61.7356C141.21 61.6921 141.908 61.301 142.433 60.6492C143.131 59.8235 143.35 58.824 143.262 57.7376C143.131 55.8255 141.865 54.5218 140.03 54.3914C139.244 54.348 138.414 54.3914 137.628 54.3914C137.584 54.3914 137.541 54.4348 137.497 54.4348C137.541 56.8684 137.541 59.302 137.541 61.7356ZM115.789 52.1751C116.575 52.1751 117.274 52.1751 118.06 52.1751C118.06 56.1297 118.06 60.0407 118.06 63.9953C117.318 63.9953 116.619 63.9953 115.832 63.9953C115.832 62.344 115.832 60.7795 115.832 59.0847C114.391 59.0847 112.95 59.0847 111.465 59.0847C111.465 60.6926 111.465 62.3006 111.465 63.9519C110.678 63.9519 109.936 63.9519 109.15 63.9519C109.15 59.9974 109.15 56.1296 109.15 52.1316C109.936 52.1316 110.635 52.1316 111.421 52.1316C111.421 53.696 111.421 55.2171 111.421 56.7816C112.862 56.7816 114.304 56.7816 115.789 56.7816C115.789 55.2606 115.789 53.7395 115.789 52.1751ZM43.7633 63.9953C42.9771 63.9953 42.2346 63.9953 41.4484 63.9953C41.3174 63.9953 41.23 63.8649 41.1863 63.778C41.0116 63.2131 40.8369 62.6481 40.6185 62.1267C40.5311 61.9528 40.4875 61.866 40.2691 61.866C38.8714 61.866 37.4737 61.866 36.1196 61.866C35.9012 61.866 35.8139 61.9528 35.7702 62.1267C35.5955 62.6916 35.4208 63.2565 35.2024 63.778C35.1587 63.9084 35.0277 63.9953 34.8966 63.9953C34.1541 63.9953 33.4553 63.9953 32.6254 63.9953C32.7127 63.8215 32.7564 63.6477 32.7564 63.5174C34.0231 59.8235 35.2897 56.2166 36.5564 52.5228C36.6875 52.2186 36.7748 52.1316 37.0806 52.1316C37.8231 52.175 38.5219 52.1316 39.3081 52.1316C39.4829 52.1316 39.6139 52.1751 39.6576 52.3924C40.9679 56.1731 42.2783 59.9538 43.5886 63.778C43.7196 63.8649 43.7633 63.9084 43.7633 63.9953ZM38.3035 54.8694C37.7357 56.5207 37.2553 58.0852 36.7311 59.6496C37.8231 59.6496 38.8714 59.6496 39.9196 59.6496C39.3518 58.0417 38.8277 56.5207 38.3035 54.8694ZM157.414 63.9953C156.628 63.9953 155.885 63.9953 155.099 63.9953C154.968 63.9953 154.881 63.8649 154.837 63.778C154.662 63.2131 154.488 62.6481 154.269 62.1267C154.182 61.9528 154.138 61.866 153.92 61.866C152.522 61.866 151.125 61.866 149.771 61.866C149.552 61.866 149.465 61.9528 149.421 62.1267C149.246 62.6916 149.072 63.2565 148.853 63.778C148.81 63.9084 148.679 63.9953 148.547 63.9953C147.805 63.9953 147.106 63.9953 146.276 63.9953C146.364 63.8215 146.407 63.6477 146.407 63.5174C147.674 59.8235 148.941 56.2166 150.207 52.5228C150.338 52.2186 150.426 52.1316 150.731 52.1316C151.474 52.175 152.173 52.1316 152.959 52.1316C153.134 52.1316 153.265 52.1751 153.308 52.3924C154.619 56.1731 155.929 59.9538 157.239 63.778C157.371 63.8649 157.414 63.9084 157.414 63.9953ZM151.911 54.8694C151.343 56.5207 150.862 58.0417 150.338 59.6496C151.43 59.6496 152.479 59.6496 153.527 59.6496C153.003 58.0417 152.479 56.5207 151.911 54.8694ZM120.943 52.1751C123.301 52.1751 125.66 52.1751 128.019 52.1751C128.019 52.9138 128.019 53.6092 128.019 54.3479C126.403 54.3479 124.83 54.3479 123.214 54.3479C123.214 55.2171 123.214 55.9993 123.214 56.8249C124.655 56.8249 126.097 56.8249 127.582 56.8249C127.582 57.5637 127.582 58.259 127.582 58.9978C126.141 58.9978 124.699 58.9978 123.214 58.9978C123.214 59.9104 123.214 60.7795 123.214 61.6921C124.83 61.6921 126.446 61.6921 128.062 61.6921C128.062 62.4309 128.062 63.1697 128.062 63.9084C125.704 63.9084 123.301 63.9084 120.899 63.9084C120.943 60.0842 120.943 56.1297 120.943 52.1751ZM47.8691 60.1277C47.8691 61.4314 47.8691 62.6917 47.8691 63.9519C47.0829 63.9519 46.384 63.9519 45.5978 63.9519C45.5978 60.0408 45.5978 56.1296 45.5978 52.1316C45.6852 52.1316 45.7725 52.0882 45.8599 52.0882C47.2576 52.0882 48.6553 52.0882 50.0093 52.0882C52.8047 52.1316 54.6829 55.0432 53.5909 57.6072C52.9358 59.2151 51.6691 59.9974 49.9657 60.0408C49.2668 60.1712 48.6116 60.1277 47.8691 60.1277ZM47.9128 57.9549C48.699 57.9549 49.3978 57.9983 50.1404 57.9549C50.9702 57.9114 51.5817 57.2161 51.6254 56.3035C51.7128 55.3909 51.1886 54.5652 50.3587 54.4348C49.5725 54.3044 48.7427 54.3914 47.9128 54.3914C47.9128 55.5648 47.9128 56.7381 47.9128 57.9549ZM56.1243 52.2186C57.8277 52.2186 59.5312 52.0881 61.1909 52.262C63.1128 52.4358 64.4668 54.2176 64.4231 56.3035C64.3795 58.2156 62.9381 59.9104 61.0162 60.0842C60.1864 60.1711 59.3128 60.0842 58.3956 60.0842C58.3956 61.4314 58.3956 62.6916 58.3956 63.9953C57.6093 63.9953 56.8668 63.9953 56.0806 63.9953C56.1243 60.0842 56.1243 56.1297 56.1243 52.2186ZM58.4392 57.9549C59.2254 57.9549 59.9243 57.9983 60.6668 57.9549C61.4967 57.9114 62.1082 57.2161 62.1519 56.3035C62.2392 55.3909 61.7151 54.5652 60.8852 54.4348C60.099 54.3044 59.2691 54.3914 58.4392 54.3914C58.4392 54.4783 58.4392 54.5218 58.4392 54.5652C58.4392 55.6951 58.4392 56.7815 58.4392 57.9549ZM85.345 52.1751C87.66 52.1751 89.9313 52.1751 92.2462 52.1751C92.2462 52.9138 92.2462 53.6092 92.2462 54.3479C90.7175 54.3479 89.1887 54.3479 87.66 54.3479C87.66 55.304 87.66 56.26 87.66 57.1726C89.1451 57.1726 90.6738 57.1726 92.1588 57.1726C92.1588 57.9114 92.1588 58.6067 92.1588 59.3455C90.6738 59.3455 89.145 59.3455 87.6163 59.3455C87.6163 60.8664 87.6163 62.3874 87.6163 63.9084C86.8301 63.9084 86.0876 63.9084 85.3014 63.9084C85.345 60.0842 85.345 56.1297 85.345 52.1751ZM156.672 52.1751C157.502 52.1751 158.331 52.1751 159.118 52.1751C159.249 52.1751 159.336 52.3055 159.423 52.4359C160.166 53.8265 160.865 55.2605 161.607 56.6945C161.695 56.8249 161.738 56.9119 161.826 57.0857C161.913 56.9554 161.957 56.8249 162.044 56.6945C162.787 55.3039 163.485 53.9133 164.184 52.4793C164.315 52.2185 164.49 52.1316 164.752 52.1316C165.451 52.175 166.194 52.1316 166.936 52.1316C166.849 52.2619 166.805 52.3924 166.761 52.5228C165.538 54.6956 164.359 56.8684 163.136 59.0413C163.005 59.2151 162.961 59.4758 162.961 59.6931C162.961 61.0838 162.961 62.5178 162.961 63.9084C162.175 63.9084 161.476 63.9084 160.69 63.9084C160.69 63.7781 160.69 63.6043 160.69 63.5174C160.69 62.2571 160.69 60.9968 160.69 59.7365C160.69 59.4758 160.603 59.2151 160.515 58.9978C159.336 56.8249 158.157 54.6521 156.934 52.4793C156.803 52.4358 156.759 52.3489 156.672 52.1751ZM101.724 54.3914C100.676 54.3914 99.6278 54.3914 98.6232 54.3914C98.6232 53.6527 98.6232 52.9573 98.6232 52.2186C101.462 52.2186 104.301 52.2186 107.184 52.2186C107.184 52.9139 107.184 53.6527 107.184 54.3914C106.18 54.3914 105.131 54.3914 104.083 54.3914C104.083 57.6072 104.083 60.7795 104.083 63.9953C103.297 63.9953 102.554 63.9953 101.768 63.9953C101.724 60.823 101.724 57.6072 101.724 54.3914ZM113.561 80.6393C110.984 80.6393 108.975 78.6403 108.975 76.0328C108.975 73.4254 110.984 71.4265 113.561 71.4265C116.138 71.4265 118.104 73.4689 118.104 76.0328C118.104 78.6403 116.095 80.6393 113.561 80.6393ZM116.357 76.0328C116.357 74.3815 115.134 73.1213 113.561 73.1213C111.901 73.1213 110.722 74.338 110.722 76.0328C110.722 77.6842 111.945 78.9445 113.518 78.9445C115.134 78.9445 116.357 77.6842 116.357 76.0328ZM119.895 71.6003C121.205 71.6003 122.515 71.5134 123.826 71.6438C125.049 71.7741 126.053 72.7736 126.272 73.9035C126.534 75.2072 125.966 76.3371 124.83 77.0324C124.787 77.0758 124.699 77.1193 124.655 77.1628C125.267 78.2926 125.922 79.3356 126.577 80.5089C125.966 80.5089 125.354 80.5089 124.787 80.5089C124.699 80.5089 124.655 80.3785 124.612 80.2916C124.088 79.4225 123.607 78.5534 123.127 77.6842C123.039 77.5539 122.865 77.4669 122.777 77.4669C122.428 77.4235 122.122 77.4669 121.729 77.4669C121.729 78.5099 121.729 79.5094 121.729 80.5089C121.161 80.5089 120.593 80.5089 120.026 80.5089C119.895 77.5104 119.895 74.5988 119.895 71.6003ZM121.642 75.8591C122.253 75.8591 122.821 75.8591 123.389 75.8591C124 75.8591 124.524 75.3376 124.612 74.6422C124.655 73.9904 124.219 73.2951 123.607 73.2516C122.996 73.2082 122.341 73.2516 121.685 73.2516C121.642 74.1208 121.642 74.9465 121.642 75.8591ZM74.1197 80.5089C73.4646 80.5089 72.8967 80.5089 72.2416 80.5089C72.0669 79.9874 71.8921 79.4225 71.6737 78.8575C70.5381 78.8575 69.4461 78.8575 68.3542 78.8575C68.2668 78.8575 68.1795 78.9879 68.1358 79.0748C68.0048 79.4659 67.8737 79.9005 67.7427 80.2916C67.699 80.3785 67.6117 80.4655 67.4806 80.5089C66.9128 80.5524 66.4324 80.5089 65.8209 80.5089C66.8255 77.5104 67.8737 74.5553 68.8783 71.6003C69.5335 71.6003 70.1887 71.6003 70.8439 71.6003C70.9749 71.6003 71.0622 71.7741 71.1059 71.9044C71.9795 74.338 72.8094 76.8586 73.6829 79.3356C73.8577 79.6833 73.9887 80.0743 74.1197 80.5089ZM71.1933 77.1628C70.8002 75.9894 70.4071 74.8161 69.9703 73.5558C69.5772 74.8161 69.1841 75.9894 68.7473 77.1628C69.6209 77.1628 70.3634 77.1628 71.1933 77.1628ZM128.106 80.5089C128.106 77.5538 128.106 74.5988 128.106 71.6438C129.897 71.6438 131.644 71.6438 133.478 71.6438C133.478 72.2087 133.478 72.7302 133.478 73.2951C132.255 73.2951 131.12 73.2951 129.853 73.2951C129.853 73.947 129.853 74.5554 129.853 75.2072C130.945 75.2072 131.993 75.2072 133.129 75.2072C133.129 75.7721 133.129 76.2936 133.129 76.8586C132.037 76.8586 130.989 76.8586 129.897 76.8586C129.897 77.5104 129.897 78.2057 129.897 78.8575C131.12 78.8575 132.299 78.8575 133.566 78.8575C133.566 79.4659 133.566 79.9874 133.566 80.5089C131.688 80.5089 129.897 80.5089 128.106 80.5089ZM94.6048 78.423C95.0853 78.1188 95.5658 77.858 96.0462 77.5538C96.0899 77.6407 96.1336 77.6842 96.1773 77.6842C96.7451 78.6837 97.837 79.1184 98.9727 78.7272C99.3221 78.5969 99.5405 78.3796 99.5405 78.0319C99.5842 77.6408 99.4094 77.3366 99.06 77.2063C98.5359 76.989 98.0117 76.8151 97.4876 76.5978C97.0508 76.424 96.5704 76.2501 96.1773 76.0328C94.5612 75.2506 94.7795 72.9909 95.7841 72.1217C97.4002 70.7311 100.108 71.2961 101.069 73.382C100.589 73.6428 100.108 73.9469 99.6278 74.2077C99.3221 73.6427 98.929 73.2082 98.3175 73.1213C97.968 73.0778 97.6623 73.1212 97.3129 73.2081C96.9635 73.2951 96.7887 73.5558 96.7451 73.86C96.7014 74.2511 96.8761 74.5119 97.1818 74.6422C97.5313 74.8161 97.9244 74.9899 98.2738 75.0768C98.798 75.2506 99.3221 75.4245 99.8026 75.6418C100.632 76.0329 101.2 76.5978 101.244 77.5538C101.331 78.5099 100.982 79.3356 100.196 79.9006C98.3175 81.3346 95.391 80.5089 94.6048 78.423ZM77.2646 80.5089C76.6968 80.5089 76.1289 80.5089 75.5611 80.5089C75.5611 77.5538 75.5611 74.5988 75.5611 71.6872C75.5611 71.6872 75.6048 71.6438 75.6485 71.6438C76.8715 71.6438 78.1818 71.5568 79.4048 71.7307C80.9335 71.861 81.9381 73.2951 81.8071 74.903C81.6761 76.3806 80.4968 77.5974 79.0117 77.6408C78.4439 77.6408 77.9197 77.6408 77.3519 77.6408C77.2645 78.5534 77.2646 79.466 77.2646 80.5089ZM77.3082 73.2081C77.3082 74.1207 77.3082 75.0334 77.3082 75.9026C77.8761 75.9026 78.3565 75.946 78.9243 75.9026C79.5795 75.8591 80.06 75.2941 80.1037 74.5554C80.1037 73.8166 79.6232 73.2082 78.9243 73.1648C78.4002 73.2082 77.8761 73.2081 77.3082 73.2081ZM85.214 77.5538C85.214 78.5533 85.214 79.466 85.214 80.4655C84.6462 80.4655 84.0784 80.4655 83.5106 80.4655C83.5106 77.5105 83.5106 74.5554 83.5106 71.6438C84.7336 71.6438 86.0002 71.6438 87.2232 71.6438C87.2669 71.6438 87.3106 71.6437 87.3542 71.6872C88.8393 71.9479 89.8876 73.2951 89.7565 74.8595C89.6255 76.3371 88.4025 77.5539 86.9611 77.5973C86.3496 77.5973 85.8255 77.5538 85.214 77.5538ZM85.2577 75.9026C85.8255 75.9026 86.3933 75.946 86.9175 75.9026C87.5726 75.8591 88.0094 75.2507 88.0094 74.5989C88.0094 73.9035 87.6163 73.2951 86.9611 73.2081C86.3933 73.1647 85.8692 73.2081 85.3014 73.2081C85.2577 74.1207 85.2577 74.99 85.2577 75.9026ZM101.899 71.5569C104.039 71.5569 106.18 71.5569 108.32 71.5569C108.32 72.1218 108.32 72.6432 108.32 73.2081C107.534 73.2081 106.791 73.2081 105.961 73.2081C105.961 75.6417 105.961 77.9884 105.961 80.422C105.393 80.422 104.826 80.422 104.214 80.422C104.214 78.0319 104.214 75.6417 104.214 73.2081C103.428 73.2081 102.642 73.2081 101.855 73.2081C101.899 72.6867 101.899 72.1218 101.899 71.5569Z" fill="#473729"/>
</g>
</svg>
