<svg width="299" height="63" viewBox="0 0 299 63" fill="none" xmlns="http://www.w3.org/2000/svg">
<g opacity="0.8">
<g clip-path="url(#clip0_642_9592)">
<path fill-rule="evenodd" clip-rule="evenodd" d="M14.9179 16.5021H9.82768V8.64423C9.82768 7.81953 9.21912 7.29086 8.50626 7.29086C7.81076 7.29086 6.97182 7.84067 6.97182 8.64423V16.5021H2.40325V3.98365L0.929688 2.96863C2.61624 2.41885 5.43737 1.2347 6.97182 0.405762V6.96948C7.58471 6.22936 9.07569 5.27777 10.9666 5.27777C13.366 5.27777 14.3962 6.8214 14.3962 8.66535V15.2967C14.3962 15.4999 14.5701 15.8973 14.9179 16.5021ZM67.38 16.5021H62.2898V8.64423C62.2898 7.81953 61.6813 7.29086 60.9684 7.29086C60.2729 7.29086 59.434 7.84067 59.434 8.64423V16.5021H54.8654V3.98365L53.3918 2.96863C55.0784 2.41885 57.8995 1.2347 59.434 0.405762V6.96948C60.0425 6.22936 61.5335 5.27777 63.4287 5.27777C65.8282 5.27777 66.8584 6.8214 66.8584 8.66535V15.2967C66.8584 15.4999 67.0322 15.8973 67.38 16.5021ZM26.0458 14.6327V15.4152C25.033 16.2652 23.9115 16.9631 21.5077 16.9631C17.7085 16.9631 15.3873 14.4847 15.3873 11.4313C15.3873 7.7899 17.7737 5.30742 21.2729 5.30742C24.7374 5.30742 26.0458 7.61653 26.0458 10.522H19.7168C19.9906 13.8673 21.9076 15.394 23.6594 15.394C24.5027 15.394 25.4546 15.119 26.0458 14.6327ZM21.06 9.86221C22.0771 9.86221 22.1945 9.57896 22.1945 8.74997C22.1945 8.11558 22.0771 6.55078 21.06 6.55078C20.0428 6.55078 19.9254 8.11558 19.9254 8.74997C19.9254 9.5789 20.0428 9.86221 21.06 9.86221ZM107.288 14.6285V15.4109C106.276 16.261 105.154 16.9588 102.75 16.9588C98.9512 16.9588 96.63 14.4805 96.63 11.4313C96.63 7.7857 99.0164 5.30742 102.52 5.30742C105.98 5.30742 107.288 7.61655 107.288 10.5178H100.959C101.233 13.8673 103.15 15.3898 104.902 15.3898C105.745 15.3898 106.697 15.1148 107.288 14.6285ZM102.303 9.85799C103.32 9.85799 103.437 9.57906 103.437 8.74997C103.437 8.11558 103.32 6.54652 102.303 6.54652C101.285 6.54652 101.168 8.11558 101.168 8.74997C101.168 9.5789 101.285 9.85799 102.303 9.85799ZM38.9516 14.5355L39.4602 14.6411C39.2299 15.5504 38.556 16.9629 36.387 16.9629C34.5787 16.9629 34.0701 15.8802 33.6919 14.7383C33.3746 15.7956 32.1357 16.9629 29.7797 16.9629C27.6759 16.9629 26.5196 16.0536 26.5196 14.3365C26.5196 12.4292 28.4322 11.0293 33.2094 9.65059V7.64176C33.2094 6.6014 32.64 6.24189 32.0097 6.24189C31.4402 6.24189 30.5361 6.83398 30.5361 7.76862C30.5361 8.2127 30.6228 8.55103 30.684 8.99512C30.684 9.56604 30.0102 10.4373 28.98 10.4373C27.8455 10.4373 27.2978 9.63368 27.2978 8.69902C27.2978 7.17228 28.7497 5.30723 32.5575 5.30723C36.5132 5.30723 37.7737 7.34145 37.7737 9.29112V14.4635C37.7737 14.7806 37.904 15.0978 38.2606 15.0978C38.5735 15.0978 38.7908 14.9246 38.9516 14.5355ZM33.2312 14.1464V10.3063C31.6315 10.9364 31.0794 12.5013 31.0794 13.7023C31.0794 14.6708 31.3879 15.1149 32.127 15.1149C32.7704 15.1149 33.2312 14.7131 33.2312 14.1464ZM45.4936 16.5021H40.2426V3.98365L38.8429 2.96863C40.4426 2.41885 43.381 1.2347 44.8416 0.405762V15.2967C44.8416 15.487 45.0589 15.8888 45.4936 16.5021ZM74.2872 16.5021H69.0318V3.98365L67.6321 2.96863C69.2318 2.41885 72.1746 1.2347 73.6351 0.405762V15.2967C73.6351 15.487 73.8525 15.8888 74.2872 16.5021ZM53.3744 15.2037V15.9861C52.6094 16.6247 51.3401 16.9631 49.9709 16.9631C47.7105 16.9631 46.9281 15.3306 46.9281 13.9518V6.5888H45.837L51.5618 1.69989V5.73028H53.3744V6.5888H51.5618V14.5693C51.5618 15.2037 51.9443 15.4997 52.4051 15.4997C52.6877 15.4997 53.1919 15.3731 53.3744 15.2037ZM78.6557 5.13401C77.356 5.13401 76.3171 4.08512 76.3171 2.76984C76.3171 1.45456 77.356 0.405762 78.6557 0.405762C79.9555 0.405762 80.99 1.45456 80.99 2.76984C80.99 4.08512 79.9555 5.13401 78.6557 5.13401ZM81.729 16.5021H76.365V8.61885L74.8914 7.59961C76.578 7.04983 79.4077 5.86142 80.9465 5.03248V15.2967C80.9465 15.4956 81.2074 15.8973 81.729 16.5021ZM96.2866 16.5021H91.0312V8.61885C91.0312 7.79415 90.427 7.26127 89.7098 7.26127C89.0143 7.26127 88.1753 7.81529 88.1753 8.61885V16.5021H83.6068V8.61885L82.1375 7.59961C83.8198 7.04983 86.5192 5.86142 88.058 5.03248V7.19781C88.8143 6.22086 90.2792 5.24396 92.1701 5.24396C94.5696 5.24396 95.5998 6.79605 95.5998 8.63997V15.2967C95.5998 15.4913 95.8301 15.8931 96.2866 16.5021Z" fill="#473729"/>
</g>
<g clip-path="url(#clip1_642_9592)">
<path d="M150.111 2.43453C150.111 0.755656 148.541 0.335938 147.301 0.335938V0.587769C148.045 0.587769 148.624 0.8396 148.624 1.42721C148.624 1.76298 148.376 2.26664 147.632 2.26664C147.053 2.26664 145.814 1.93087 144.905 1.59509C143.83 1.17537 142.838 0.8396 142.012 0.8396C140.359 0.8396 139.202 2.09875 139.202 3.5258C139.202 4.78495 140.111 5.20467 140.442 5.37256L140.524 5.20467C140.359 5.03678 140.111 4.8689 140.111 4.36523C140.111 4.02946 140.442 3.44185 141.268 3.44185C142.012 3.44185 143.004 3.77763 144.326 4.19735C145.483 4.53312 146.723 4.78495 147.384 4.8689V7.47115L146.144 8.56242V8.64636L147.384 9.73763V13.3472C146.723 13.7669 145.979 13.8509 145.318 13.8509C144.078 13.8509 143.004 13.5151 142.095 12.5078L145.483 10.8289V5.03678L141.351 6.88355C141.681 5.79228 142.59 5.03678 143.5 4.53312L143.417 4.28129C140.938 4.95284 138.706 7.30326 138.706 10.1574C138.706 13.5151 141.433 16.0334 144.491 16.0334C147.797 16.0334 149.946 13.3472 149.946 10.5771H149.781C149.285 11.6683 148.541 12.6757 147.632 13.1793V9.73763L148.954 8.64636V8.56242L147.632 7.47115V4.8689C148.872 4.8689 150.111 4.02946 150.111 2.43453ZM142.921 11.6683L141.929 12.172C141.351 11.4165 141.02 10.4092 141.02 8.98214C141.02 8.39453 141.02 7.72298 141.185 7.21932L142.921 6.46383V11.6683ZM151.682 13.599L150.607 14.4385L150.773 14.6064L151.268 14.1866L153.087 15.8655L155.566 14.1866L155.483 14.0188L154.822 14.4385L153.996 13.599V7.89087L154.657 7.38721L156.062 8.56242V13.683C156.062 16.8728 155.401 17.3765 153.996 17.8802V18.132C156.31 18.2159 158.459 17.4605 158.459 13.3472V7.80693L159.203 7.21932L159.037 7.05143L158.376 7.5551L156.31 5.79228L153.996 7.5551V0.671712H153.831L150.938 2.68636V2.85425C151.268 3.02214 151.764 3.19002 151.764 4.1134L151.682 13.599ZM166.806 12.6757L164.74 14.2706L162.674 12.5917V11.5844L166.558 8.8982V8.81425L164.575 5.79228L160.277 8.1427V13.683L159.451 14.3545L159.616 14.5224L160.36 13.9348L163.17 16.0334L166.889 13.0114L166.806 12.6757ZM162.674 11.2486V7.13538L162.839 7.05143L164.657 9.98946L162.674 11.2486ZM182.592 1.67904C182.592 1.42721 182.509 1.17537 182.426 0.923543H182.261C182.013 1.59509 181.683 1.93087 180.856 1.93087C180.112 1.93087 179.616 1.51115 179.286 1.17537L176.889 3.94552L177.054 4.1134L177.881 3.35791C178.377 3.77763 178.79 4.1134 179.947 4.19735V11.1647L175.071 2.68636C174.658 2.01481 174.079 1.09143 172.922 1.09143C171.6 1.09143 170.443 2.26664 170.608 4.1134H170.856C170.938 3.60974 171.186 3.02214 171.765 3.02214C172.178 3.02214 172.591 3.44185 172.839 3.86157V6.63171C171.352 6.63171 170.36 7.30326 170.36 8.56242C170.36 9.23397 170.691 10.2413 171.682 10.4931V10.3252C171.517 10.1574 171.434 9.98946 171.434 9.73763C171.434 9.31791 171.765 8.98214 172.343 8.98214H172.757V12.5078C171.021 12.5078 169.616 13.5151 169.616 15.194C169.616 16.7889 170.938 17.5444 172.426 17.4605V17.2926C171.517 17.2086 171.104 16.7889 171.104 16.2013C171.104 15.4458 171.6 15.11 172.261 15.11C172.922 15.11 173.501 15.5297 173.914 16.0334L176.311 13.3472L176.145 13.1793L175.567 13.8509C174.658 13.0114 174.162 12.7596 173.087 12.5917V4.19735L179.699 15.9495H180.195V4.19735C181.435 4.1134 182.592 3.10608 182.592 1.67904ZM188.625 12.6757L186.559 14.2706L184.493 12.5917V11.5844L188.377 8.8982V8.81425L186.394 5.79228L182.096 8.1427V13.683L181.269 14.3545L181.435 14.5224L182.179 13.9348L184.989 16.0334L188.708 13.0114L188.625 12.6757ZM184.493 11.2486V7.13538L184.658 7.05143L186.476 9.98946L184.493 11.2486ZM202.096 6.71566L201.518 7.13538L199.948 5.79228L198.129 7.47115L198.873 8.22665V14.5224L196.89 13.2633V8.05876L197.551 7.63904L195.65 5.79228L193.832 7.47115L194.576 8.22665V14.2706L194.328 14.4385L192.592 13.1793V8.1427C192.592 6.96749 192.014 6.63171 191.352 6.212C190.774 5.79228 190.443 5.54045 190.443 4.95284C190.443 4.44918 190.939 4.19735 191.187 4.02946V3.86157C190.526 3.86157 188.79 4.53312 188.79 6.12805C188.79 6.96749 189.204 7.30326 189.617 7.72298C190.03 8.1427 190.443 8.47848 190.443 9.23397V14.1027L189.534 14.7743L189.699 14.9421L190.526 14.2706L192.427 15.9495L194.493 14.5224L196.807 15.9495L201.187 13.3472V7.72298L202.262 6.88355L202.096 6.71566ZM217.469 2.09876L216.642 2.85425L214.824 1.17537L212.097 3.19002V1.34326H211.849L211.932 14.9421C211.684 14.9421 210.94 14.7743 210.361 14.6064L210.196 3.27397C210.196 2.43453 209.617 1.25932 208.13 1.25932C206.642 1.25932 205.65 2.43453 205.65 3.60974H205.898C205.981 3.10608 206.229 2.68636 206.725 2.68636C207.221 2.68636 207.634 3.02214 207.634 4.1134V7.38721C206.146 7.47115 205.237 8.31059 205.237 9.40186C205.237 10.0734 205.568 11.0807 206.559 11.0807V10.9128C206.229 10.745 206.146 10.4931 206.146 10.3252C206.146 9.82158 206.559 9.65369 207.221 9.65369H207.551V14.8582C206.312 15.2779 205.816 16.2013 205.816 17.2086C205.816 18.6357 206.89 19.643 208.543 19.643C209.7 19.643 210.692 19.4751 211.684 19.2233C212.51 19.0554 213.584 18.8036 214.08 18.8036C214.742 18.8036 214.989 19.1393 214.989 19.559C214.989 20.1466 214.742 20.3985 214.411 20.4824V20.6503C215.733 20.3985 216.56 19.559 216.56 18.2999C216.56 17.0407 215.32 16.2852 213.998 16.2852C213.337 16.2852 211.932 16.5371 210.94 16.705C209.783 16.9568 208.626 17.1247 208.295 17.1247C207.717 17.1247 207.055 16.8728 207.055 16.0334C207.055 15.3619 207.634 14.7743 209.039 14.7743C209.783 14.7743 210.692 14.8582 211.601 15.11C212.593 15.3619 213.502 15.6137 214.328 15.6137C215.568 15.6137 216.642 15.194 216.642 13.4312V3.10608L217.634 2.26664L217.469 2.09876ZM214.08 7.21932C213.832 7.47115 213.502 7.72298 213.089 7.72298C212.675 7.72298 212.262 7.47115 212.097 7.21932V3.5258L212.923 2.93819L214.08 4.02946V7.21932ZM214.08 9.73763C213.915 9.56974 213.502 9.31791 213.089 9.31791C212.675 9.31791 212.262 9.56974 212.097 9.73763V7.5551C212.262 7.72298 212.675 7.97481 213.089 7.97481C213.502 7.97481 213.915 7.72298 214.08 7.5551V9.73763ZM214.08 13.683C214.08 14.3545 213.667 15.0261 212.758 15.0261H212.097V10.0734C212.262 9.90552 212.675 9.65369 213.089 9.65369C213.502 9.65369 213.832 9.90552 214.08 10.0734V13.683ZM225.403 7.72298L222.758 5.79228L218.709 8.1427V13.599L217.882 14.2706L217.965 14.4385L218.626 13.9348L221.271 15.9495L225.403 13.4312V7.72298ZM220.94 13.0114V6.96749L223.006 8.47848V14.4385L220.94 13.0114ZM233.255 5.96016H233.089C232.841 6.12805 232.593 6.29594 232.345 6.29594C232.015 6.29594 231.602 6.12805 231.436 5.87622H231.271L229.866 7.47115L228.461 5.87622L225.982 7.5551L226.064 7.72298L226.725 7.30326L227.552 8.22665V13.5151L226.477 14.3545L226.643 14.5224L227.139 14.1027L229.122 15.7816L231.684 14.0188L231.602 13.8509L230.858 14.2706L229.866 13.4312V7.5551C230.279 7.97481 230.775 8.39453 231.354 8.39453C232.511 8.47848 233.172 7.30326 233.255 5.96016ZM243.172 14.0188L240.362 15.9495L236.56 10.0734L239.288 5.79228H239.453C239.784 6.12805 240.28 6.46383 240.858 6.46383C241.437 6.46383 241.85 6.12805 242.098 5.79228H242.263C242.18 7.47115 241.023 8.47848 240.197 8.47848C239.37 8.47848 238.957 8.05876 238.461 7.80693L238.213 8.22665L242.346 14.4385L243.172 13.9348V14.0188ZM234.081 13.599L233.007 14.4385L233.172 14.6064L233.668 14.1866L235.486 15.8655L237.965 14.1866L237.8 14.0188L237.139 14.4385L236.312 13.599V0.671712H236.23L233.255 2.68636V2.85425C233.585 3.02214 234.081 3.10608 234.081 4.1134V13.599ZM256.892 2.43453C256.892 0.755656 255.321 0.335938 254.082 0.335938V0.587769C254.825 0.587769 255.404 0.8396 255.404 1.42721C255.404 1.76298 255.156 2.26664 254.412 2.26664C253.834 2.26664 252.594 1.93087 251.685 1.59509C250.61 1.25932 249.619 0.923543 248.792 0.923543C247.139 0.923543 245.982 2.1827 245.982 3.60974C245.982 4.8689 246.891 5.28862 247.222 5.4565L247.305 5.28862C247.057 5.12073 246.809 4.95284 246.809 4.44918C246.809 4.1134 247.139 3.5258 247.966 3.5258C248.71 3.5258 249.701 3.86157 251.024 4.28129C252.181 4.61707 253.42 4.8689 254.082 4.95284V7.5551L252.842 8.64636V8.73031L254.082 9.82158V13.4312C253.42 13.8509 252.677 13.9348 252.015 13.9348C250.776 13.9348 249.701 13.599 248.792 12.5917L252.181 10.9128V5.03678L248.048 6.88355C248.462 5.79228 249.371 5.03678 250.197 4.44918L250.115 4.28129C247.635 4.95284 245.404 7.21932 245.404 10.0734C245.404 13.4312 248.131 15.9495 251.189 15.9495C254.495 15.9495 256.644 13.2633 256.644 10.4931H256.478C255.983 11.5844 255.239 12.5917 254.33 13.0954V9.65369L255.652 8.56242V8.47848L254.412 7.38721V4.8689C255.652 4.8689 256.892 4.02946 256.892 2.43453ZM249.701 11.6683L248.71 12.172C248.131 11.4165 247.8 10.4092 247.8 8.98214C247.8 8.39453 247.883 7.72298 248.048 7.21932L249.784 6.46383L249.701 11.6683ZM259.784 1.59509H259.702L258.049 3.02214V3.10608L259.454 4.70101H259.619L261.272 3.27397V3.19002L259.784 1.59509ZM262.264 14.0188L261.603 14.4385L260.776 13.599V7.80693L261.603 7.21932L261.437 7.05143L260.859 7.5551L259.371 5.79228L256.974 7.47115L257.14 7.72298L257.718 7.30326L258.462 8.22665V13.683L257.388 14.5224L257.47 14.6903L258.049 14.2706L259.867 15.9495L262.346 14.2706L262.264 14.0188ZM276.066 13.9348L275.487 14.3545L274.578 13.5151V7.80693L275.405 7.13538L275.239 6.96749L274.578 7.5551L272.677 5.79228L270.198 7.5551L268.297 5.79228L265.983 7.5551L264.495 5.79228L262.098 7.47115L262.181 7.72298L262.76 7.30326L263.586 8.22665V13.683L262.925 14.3545L264.826 15.9495L266.644 14.2706L265.9 13.5151V7.80693L266.644 7.30326L267.884 8.47848V13.5151L267.223 14.1866L269.123 15.7816L270.942 14.1027L270.198 13.3472V7.80693L270.859 7.38721L272.181 8.56242V13.599L271.603 14.1866L273.504 15.9495L276.066 14.1866V13.9348ZM283.256 12.6757L281.19 14.2706L279.124 12.5917V11.5844L283.008 8.8982V8.81425L281.025 5.79228L276.727 8.1427V13.8509L279.62 15.9495L283.339 12.9275L283.256 12.6757ZM279.124 11.2486V7.13538L279.289 7.05143L281.107 9.98946L279.124 11.2486ZM290.777 10.4931L289.207 9.23397C290.281 8.31059 290.694 7.05143 290.694 6.212V5.70833H290.529C290.364 6.12805 290.033 6.54777 289.372 6.54777C288.711 6.54777 288.298 6.212 287.884 5.70833L284.165 7.80693V10.8289L285.57 11.9202C284.165 13.1793 283.917 14.0188 283.917 14.6903C283.917 15.5297 284.331 16.1174 284.992 16.3692L285.074 16.2013C284.909 16.0334 284.744 15.9495 284.744 15.5297C284.744 15.2779 285.074 14.8582 285.736 14.8582C286.562 14.8582 287.058 15.4458 287.306 15.6976L290.86 13.5151V10.4931H290.777ZM289.868 7.97481C289.289 8.98214 288.05 9.98946 287.306 10.4931L286.397 9.73763V6.7996C286.727 7.63904 287.636 8.31059 288.546 8.31059C289.124 8.31059 289.455 8.22665 289.868 7.97481ZM288.463 14.6903C288.05 13.7669 287.058 13.0954 286.066 13.0954C285.818 13.0954 285.157 13.0954 284.496 13.5151C284.909 12.8435 285.983 11.6683 287.388 10.8289L288.38 11.6683L288.463 14.6903Z" fill="#473729"/>
</g>
<g clip-path="url(#clip2_642_9592)">
<path d="M8.22873 39.9279H9.98445C11.0537 39.7715 12.1456 39.909 13.1417 40.3255C14.3913 41.072 15.2976 42.2738 15.6674 43.6745C15.9292 44.4085 15.9292 44.4085 16.5607 44.1486H17.0535V38.3376H0.528223V39.3621H1.20587C1.50034 39.3601 1.79153 39.4236 2.05805 39.548C2.32456 39.6724 2.55962 39.8544 2.74597 40.0809C3.37741 41.0901 3.48522 42.2218 3.48522 48.1092C3.48522 54.3637 3.34661 55.8929 2.74597 56.6728C2.59769 56.8733 2.40571 57.038 2.18437 57.1545C1.96302 57.271 1.71803 57.3363 1.46769 57.3457C0.528223 57.5139 0.528223 57.4986 0.528223 57.9115C0.47627 58.0495 0.47627 58.2016 0.528223 58.3397H10.9547C11.0237 58.2046 11.0597 58.0553 11.0597 57.9038C11.0597 57.7524 11.0237 57.6031 10.9547 57.468C10.7022 57.3982 10.4448 57.3471 10.1847 57.3151C9.90325 57.2819 9.62509 57.2256 9.35301 57.1469C8.96339 56.8644 8.65474 56.4859 8.45756 56.0488C8.26038 55.6116 8.18151 55.1309 8.22873 54.6543C8.07472 53.645 7.99772 51.7946 7.99772 50.2654V49.0573H8.61376C9.38128 49.034 10.1483 49.1164 10.8931 49.302C11.2499 49.5209 11.5536 49.8154 11.7826 50.1643C12.0115 50.5132 12.1601 50.9081 12.2176 51.3206L12.3562 51.7946H13.2957V45.0202H12.4332L12.2946 45.6778C12.2363 46.0996 12.0791 46.502 11.8357 46.8526C11.5923 47.2032 11.2694 47.4922 10.8931 47.6963C10.5287 47.804 10.1447 47.8301 9.76884 47.7728H7.99772V46.1212C7.99772 44.4085 8.09012 40.7996 8.15173 40.2338L8.22873 39.9279ZM80.3055 52.0546C79.5775 50.8912 78.4421 50.0361 77.1175 49.6537C76.1021 49.3386 75.1634 48.8179 74.3607 48.1245C74.1801 47.9511 74.045 47.7363 73.9671 47.4991C73.8893 47.2619 73.8711 47.0093 73.9141 46.7635C73.9153 46.2813 74.1092 45.8193 74.4531 45.479C74.6863 45.2365 74.9813 45.0615 75.3068 44.9726C75.6323 44.8838 75.9761 44.8844 76.3013 44.9743C76.9745 45.1649 77.5834 45.5327 78.0633 46.0388C78.5432 46.5449 78.8762 47.1705 79.0272 47.8493C79.2737 48.5374 79.3044 48.5374 79.7511 48.3539L80.0283 48.2469V44.4391L79.8281 44.3474C78.3119 43.8186 76.7035 43.6001 75.1 43.7051C73.7191 43.7398 72.4009 44.2852 71.4037 45.2343C70.9515 45.6547 70.5972 46.1681 70.3658 46.7387C70.1343 47.3092 70.0313 47.9231 70.0638 48.5374C70.0725 49.4765 70.4479 50.3757 71.1111 51.0453C71.844 51.761 72.7432 52.2862 73.7293 52.5745C76.1164 53.5073 76.8095 54.1037 76.8095 55.1895C76.8197 55.6473 76.6728 56.0951 76.393 56.4591C76.1131 56.8231 75.7169 57.0818 75.2694 57.1927C74.7316 57.3101 74.1746 57.3101 73.6369 57.1927C72.9328 56.9214 72.3041 56.4871 71.8032 55.9258C71.3023 55.3646 70.9436 54.6927 70.7569 53.9661L70.5567 53.4768H70.2795C70.147 53.4865 70.0169 53.5175 69.8944 53.5685H69.7404V57.9115H70.0022C71.0427 58.2552 72.1162 58.4909 73.2056 58.6149H74.7457C75.4137 58.6636 76.0851 58.6016 76.7325 58.4314C77.5544 58.2808 78.3223 57.9193 78.9599 57.3827C79.5976 56.8462 80.0827 56.1533 80.3671 55.373C80.5509 54.9371 80.6452 54.4692 80.6443 53.9967C80.705 53.331 80.5882 52.6612 80.3055 52.0546ZM65.7978 44.1486C64.8749 43.7638 63.8805 43.5772 62.8798 43.6009C61.8792 43.6246 60.8949 43.8582 59.9916 44.2862C59.1425 44.6986 58.3899 45.2832 57.7824 46.0023C57.1749 46.7214 56.726 47.5589 56.4647 48.4609C56.1316 49.4449 55.9905 50.4829 56.0489 51.5194C56.0379 52.0833 56.0843 52.6469 56.1875 53.2015C56.4362 54.5653 57.0993 55.8208 58.0877 56.7994C59.076 57.7781 60.3423 58.4329 61.7165 58.6761C62.6113 58.788 63.5168 58.788 64.4117 58.6761C65.3402 58.5136 66.2289 58.1762 67.0298 57.6821C67.6923 57.3133 68.253 56.7881 68.6623 56.1529C68.6361 56.0532 68.5898 55.9598 68.5263 55.8784C68.4628 55.7969 68.3833 55.729 68.2927 55.6788C68.1169 55.742 67.951 55.8295 67.7999 55.9388C67.0339 56.4401 66.1293 56.6913 65.2125 56.6575C64.604 56.6984 63.994 56.6043 63.4266 56.3821C62.8592 56.16 62.3487 55.8152 61.9321 55.373C61.6098 55.0757 61.3438 54.7236 61.1466 54.3331C60.6681 53.3825 60.4102 52.3374 60.392 51.2747V50.6783H68.9242V50.3725C68.943 50.0669 68.943 49.7605 68.9242 49.4549C68.9211 48.3752 68.6302 47.3154 68.0811 46.3834C67.532 45.4514 66.7442 44.6804 65.7978 44.1486ZM61.5009 49.4396H60.4228V48.5374C60.777 46.2283 61.6549 44.852 62.7329 44.852C63.811 44.852 64.2731 46.213 64.4733 48.7056V49.4091H63.5492L61.5009 49.4396ZM39.3542 43.6439C38.822 43.6234 38.293 43.7337 37.8141 43.9651C36.7732 44.467 35.9324 45.3018 35.4269 46.3353L35.2267 46.7024V43.6439H35.1497C34.9649 43.6439 29.2665 44.7755 29.0817 44.852C28.8969 44.9285 28.9585 44.9438 28.9585 45.219C28.9585 45.4943 28.9585 45.5401 29.0817 45.5554L29.6824 45.6778C29.8506 45.6819 30.0157 45.7239 30.1651 45.8008C30.3145 45.8776 30.4444 45.9872 30.5448 46.1212C30.9298 46.6259 31.0068 47.5128 31.0068 51.29C31.0829 52.9904 31.0108 54.6942 30.7912 56.3823C30.7395 56.6368 30.6096 56.8691 30.4192 57.0472C30.2289 57.2252 29.9875 57.3402 29.7286 57.3763L29.2049 57.4833H29.0047V57.9115C28.9488 58.0541 28.9488 58.2123 29.0047 58.3549H37.6139V57.9115C37.6438 57.7651 37.6438 57.6143 37.6139 57.468C37.0955 57.4479 36.5801 57.3814 36.0738 57.2692C35.7981 57.126 35.5725 56.9033 35.4268 56.6303C35.2811 56.3573 35.2221 56.0469 35.2575 55.74C35.1343 54.8531 35.0727 52.2534 35.1035 50.2654C35.1343 48.2774 35.1035 48.1551 35.2729 48.0175C35.7883 47.6251 36.426 47.4249 37.0748 47.4517C37.6864 47.4649 38.2869 47.6166 38.8306 47.8951C39.019 47.999 39.2212 48.0763 39.4312 48.1245C39.4312 48.1245 40.9713 44.4238 40.9713 44.2556C40.7742 44.0282 40.5231 43.8532 40.2408 43.7464C39.9584 43.6396 39.6537 43.6044 39.3542 43.6439ZM28.9739 50.0666C28.9202 48.9738 28.6042 47.9097 28.0523 46.9627C27.5005 46.0157 26.7287 45.2134 25.8013 44.6226C24.6992 44.0323 23.473 43.7068 22.2213 43.6722C20.9695 43.6377 19.727 43.8951 18.5936 44.4238C16.9911 45.2629 15.7812 46.6892 15.2208 48.3998C14.642 50.315 14.642 52.3567 15.2208 54.2719C15.5242 55.3187 16.0914 56.2713 16.8687 57.0398C17.8368 57.9778 19.0851 58.5787 20.4263 58.7525C21.2873 58.824 22.1528 58.824 23.0137 58.7525C23.3305 58.7047 23.6442 58.6383 23.9532 58.5537C25.2068 58.2056 26.3346 57.5101 27.2046 56.5487C28.0747 55.5873 28.651 54.3998 28.8661 53.125C29.0199 52.113 29.056 51.0868 28.9739 50.0666ZM22.5671 57.7127C21.027 58.1714 19.8719 56.6881 19.4869 53.5685C19.3455 51.9353 19.3455 50.293 19.4869 48.6597C19.7949 46.1518 20.5804 44.8826 21.797 44.8826C22.0425 44.8675 22.288 44.911 22.5131 45.0094C22.7382 45.1078 22.9362 45.2584 23.0907 45.4484C24.1226 46.473 24.6308 48.5068 24.6308 51.5652C24.759 53.2961 24.485 55.0331 23.83 56.6422C23.5408 57.1115 23.0933 57.4637 22.5671 57.6362V57.7127ZM50.2889 43.9498C49.8544 43.8942 49.4144 43.8942 48.9798 43.9498C48.1456 43.9491 47.321 44.1264 46.5619 44.4697L46.0844 44.6685V41.3501C46.1679 40.2302 46.1679 39.1057 46.0844 37.9858C45.8996 37.9858 40.0164 39.1022 39.924 39.148C39.8786 39.2609 39.8786 39.3869 39.924 39.4998C39.924 39.8209 39.924 39.8056 40.6171 39.9585C40.8117 40.0019 40.9986 40.074 41.1715 40.1726C41.4721 40.4533 41.6722 40.8238 41.7414 41.2278C41.9167 42.3915 41.9735 43.5699 41.9108 44.745V58.1714L42.3266 58.2632C42.9426 58.4008 44.683 58.6914 45.2528 58.7525C46.3907 58.8424 47.5339 58.8424 48.6718 58.7525C49.9348 58.6244 51.1387 58.1566 52.1537 57.3994C53.1687 56.6422 53.9563 55.6243 54.4318 54.4555C54.7153 53.7053 54.9116 52.9254 55.017 52.1311C55.1087 51.055 55.0725 49.972 54.9092 48.9044C54.744 47.7077 54.2121 46.5904 53.3855 45.704C52.559 44.8177 51.4779 44.2053 50.2889 43.9498ZM46.2539 57.4527C46.2539 57.2539 46.0999 50.556 46.1307 47.8798V45.7848L46.5773 45.6778C46.8786 45.6349 47.1846 45.6349 47.4859 45.6778C47.8192 45.6441 48.1544 45.7193 48.4408 45.8919C49.016 46.286 49.4936 46.8046 49.8377 47.4085C50.1818 48.0124 50.3835 48.686 50.4275 49.3785C50.5397 50.492 50.5397 51.6139 50.4275 52.7274C50.3354 54.3459 49.7073 55.8888 48.641 57.1163C48.3384 57.4017 47.9583 57.5931 47.5475 57.6668C47.2367 57.7205 46.9189 57.7205 46.6081 57.6668C46.3155 57.6668 46.3155 57.575 46.3155 57.4527H46.2539Z" fill="#473729"/>
</g>
<g clip-path="url(#clip3_642_9592)">
<path fill-rule="evenodd" clip-rule="evenodd" d="M117.468 62.7991H119.211V52.8738H117.468V62.7991ZM123.858 62.6502H125.419V56.388L131.991 62.7991V53.0227H130.434V59.1779L123.858 52.8738V62.6502ZM135.555 60.2465C136.405 60.9521 137.425 61.36 138.518 61.36C139.583 61.36 140.331 60.9691 140.331 60.1061C140.331 59.354 139.854 59.0593 139.02 58.7297L137.669 58.2296C136.423 57.7582 135.476 57.0696 135.476 55.487C135.476 53.7942 136.91 52.8738 138.625 52.8738C139.675 52.8738 140.633 53.1553 141.38 53.6539V55.3327C140.603 54.7201 139.751 54.2983 138.658 54.2983C137.717 54.2983 137.013 54.6728 137.013 55.4536C137.013 56.1592 137.455 56.4415 138.232 56.7253L139.738 57.2883C141.196 57.8349 141.866 58.6824 141.866 60.0766C141.866 61.8306 140.418 62.7991 138.518 62.7991C137.27 62.7991 136.208 62.4269 135.555 61.957V60.2465ZM145.933 62.7991H147.675V52.8738H145.933V62.7991ZM155.85 61.2971C157.814 61.2971 158.864 59.9541 158.864 57.8341C158.864 55.6987 157.813 54.3603 155.85 54.3603H153.907V61.2971H155.85ZM152.321 52.8738H155.908C158.669 52.8738 160.454 54.8124 160.454 57.8341C160.454 60.8583 158.669 62.7991 155.908 62.7991H152.321V52.8738ZM169.169 52.8738V54.3603H164.951V56.7486H168.734V58.218H164.95V61.2971H169.169V62.7991H163.359V52.8738H169.169ZM175.354 57.3681H177.084C178.107 57.3681 178.684 56.7695 178.684 55.8491C178.684 54.9287 178.107 54.3293 177.084 54.3293H175.354V57.3681ZM175.354 58.7716V62.7991H173.815V52.8738H177.113C178.993 52.8738 180.209 53.9059 180.209 55.8491C180.209 57.5108 179.534 58.4653 178.096 58.7104L181.367 62.7991H179.617L176.449 58.7724H175.355L175.354 58.7716ZM116.859 43.0958C117.541 42.8299 118.072 42.032 118.072 40.9347C118.072 39.1063 116.859 38.1588 114.919 38.1588H111.659V48.3655H115.221C117.162 48.3655 118.374 47.3513 118.374 45.4399C118.374 44.359 117.738 43.4114 116.859 43.0958ZM113.19 42.4476V39.6553H114.904C115.981 39.6553 116.556 40.0709 116.556 41.0348C116.556 41.9986 115.98 42.4476 114.904 42.4476H113.19ZM113.19 43.8774H115.191C116.253 43.8774 116.828 44.4419 116.828 45.3732C116.828 46.2874 116.252 46.8698 115.191 46.8698H113.191V43.8767L113.19 43.8774ZM125.486 48.5315C127.714 48.5315 129.215 47.1016 129.215 44.3094V38.1588H127.639V44.1093C127.639 46.0711 126.881 46.9861 125.486 46.9861C124.091 46.9861 123.334 46.0711 123.334 44.1093V38.1588H121.757V44.2923C121.757 47.1016 123.273 48.5315 125.486 48.5315ZM132.927 47.6336C133.579 48.1329 134.641 48.5315 135.883 48.5315C137.778 48.5315 139.218 47.5002 139.218 45.6392C139.218 44.1597 138.552 43.2618 137.096 42.6802L135.596 42.0816C134.822 41.783 134.383 41.4837 134.383 40.7355C134.383 39.9042 135.08 39.5057 136.02 39.5057C137.111 39.5057 137.96 39.9538 138.734 40.6029V38.8233C137.991 38.2921 137.036 37.9928 135.989 37.9928C134.277 37.9928 132.852 38.9737 132.852 40.7688C132.852 42.4476 133.792 43.1788 135.034 43.6774L136.384 44.2093C137.217 44.5583 137.687 44.8746 137.687 45.6725C137.687 46.5867 136.945 47.0024 135.883 47.0024C134.792 47.0024 133.776 46.5697 132.927 45.8222V47.6336ZM144.852 38.1588H143.276V48.3648H144.852V38.1588ZM149.349 48.3524H150.868V41.7125L157.262 48.5106V38.1432H155.747V44.6699L149.349 37.9858V48.3524ZM167.113 38.1611V39.6894H163.02V42.1459H166.691V43.6572H163.02V46.8232H167.113V48.3679H161.475V38.1611H167.113ZM170.784 47.6266C171.436 48.1259 172.496 48.5245 173.74 48.5245C175.634 48.5245 177.075 47.494 177.075 45.6322C177.075 44.1527 176.408 43.2556 174.953 42.6732L173.452 42.0754C172.678 41.7761 172.239 41.4768 172.239 40.7285C172.239 39.8972 172.936 39.4987 173.876 39.4987C174.967 39.4987 175.816 39.9476 176.59 40.5959V38.8171C175.847 38.2852 174.891 37.9858 173.845 37.9858C172.133 37.9858 170.707 38.9667 170.707 40.7618C170.707 42.4406 171.647 43.1718 172.89 43.6704L174.24 44.2023C175.073 44.5513 175.543 44.8677 175.543 45.6656C175.543 46.5798 174.801 46.9954 173.739 46.9954C172.648 46.9954 171.632 46.5635 170.784 45.8152V47.6266ZM180.304 47.6266C180.956 48.1259 182.018 48.5245 183.26 48.5245C185.156 48.5245 186.595 47.494 186.595 45.6322C186.595 44.1527 185.928 43.2556 184.473 42.6732L182.972 42.0754C182.2 41.7761 181.759 41.4768 181.759 40.7285C181.759 39.8972 182.457 39.4987 183.396 39.4987C184.488 39.4987 185.337 39.9476 186.11 40.5959V38.8171C185.368 38.2852 184.413 37.9858 183.367 37.9858C181.653 37.9858 180.229 38.9667 180.229 40.7618C180.229 42.4406 181.169 43.1718 182.411 43.6704L183.761 44.2023C184.595 44.5513 185.065 44.8677 185.065 45.6656C185.065 46.5798 184.322 46.9954 183.26 46.9954C182.169 46.9954 181.153 46.5635 180.304 45.8152V47.6266Z" fill="#473729"/>
</g>
<g clip-path="url(#clip4_642_9592)">
<path d="M241.407 38.5807C236.754 38.613 232.947 43.6337 232.947 48.0129C232.947 52.6213 235.738 58.2428 241.407 58.2246C247.077 58.2063 250.02 52.1543 250.02 48.0129C250.02 43.4385 246.061 38.5484 241.407 38.5807ZM241.407 38.7525C245.302 38.7525 246.353 42.9282 246.353 48.0129C246.353 54.7222 245.085 58.0322 241.407 58.0259C237.729 58.0196 236.533 55.3105 236.533 48.0129C236.533 43.4416 237.512 38.7525 241.407 38.7525Z" fill="#473729"/>
<path d="M251.557 48.1368C251.536 43.154 255.644 38.7401 259.122 38.5211C260.378 38.4347 261.993 38.9932 262.935 39.391C263.62 39.6798 265.017 39.2617 265.266 38.4946H265.401V45.2822H265.266C265.266 44.9929 263.971 38.6918 259.122 38.6918C255.54 38.6918 255.194 44.805 255.194 48.1368C255.194 51.4687 255.299 58.0646 259.478 58.0646C261.503 58.0646 263.001 57.2047 263.39 55.4652V50.1759H261.69V49.9506H268.278V50.1759H266.653V57.9088H266.521C266.521 57.9088 266.257 56.7931 264.916 56.7968C263.203 56.8015 261.588 58.2463 259.618 58.2287C254.41 58.1822 251.578 53.1197 251.557 48.1368Z" fill="#473729"/>
<path d="M220.171 39.2492H218.12V39.0254H225.305V39.2492H223.503L228.636 52.783C230.242 47.9853 231.485 44.4387 233.159 39.2492H231.376V39.0254H235.17V39.2492H233.442L227.203 58.1315L220.171 39.2492Z" fill="#473729"/>
<path d="M269.284 53.5088L269.251 39.2276H267.299V39.0137H274.492V39.2276H272.54L272.584 54.8861C273.016 56.6792 273.784 58.0397 276.407 58.0599C279.031 58.0802 280.815 56.5533 281.477 54.4666V39.2276H279.244L279.244 39.02H297.524L297.562 45.8755H297.386C297.047 41.4491 295.288 39.7763 292.21 39.2883C291.152 39.1203 290.041 39.2448 288.637 39.2342V47.9837C289.859 48.0754 291.162 48.0004 292.04 47.2685C292.838 46.603 293.064 45.0654 293.122 44.4407H293.277V52.0588H293.11C293.061 52.0588 292.997 50.1471 292.04 49.2401C291.076 48.3272 289.849 48.1027 288.637 48.3202V57.6665C290.349 57.6665 291.715 57.8074 292.9 57.4918C296.504 56.5327 297.773 53.581 297.764 50.6206H297.964V57.8878H283.626V57.6665H285.247V39.2276H281.744V54.4666C281.347 55.9247 279.896 58.3369 276.178 58.3205C272.72 58.3051 269.291 56.792 269.284 53.5088Z" fill="#473729"/>
</g>
</g>
<defs>
<clipPath id="clip0_642_9592">
<rect width="107.193" height="17.3693" fill="white" transform="translate(0.512695)"/>
</clipPath>
<clipPath id="clip1_642_9592">
<rect width="152.897" height="20.9859" fill="white" transform="translate(138.706)"/>
</clipPath>
<clipPath id="clip2_642_9592">
<rect width="80.1469" height="20.8432" fill="white" transform="translate(0.512695 37.9858)"/>
</clipPath>
<clipPath id="clip3_642_9592">
<rect width="74.9361" height="24.8133" fill="white" transform="translate(111.659 37.9858)"/>
</clipPath>
<clipPath id="clip4_642_9592">
<rect width="80.8913" height="20.8432" fill="white" transform="translate(217.596 37.9858)"/>
</clipPath>
</defs>
</svg>
