<svg width="532" height="594" viewBox="0 0 532 594" fill="none" xmlns="http://www.w3.org/2000/svg">
<path d="M485 12.0005C540 12.5 519 160.5 494.5 258C491.797 268.757 453 200.5 453 200.5L413.5 163.5C413.5 163.5 349.525 137.404 359 125.001C420.5 44.5005 461.493 11.7871 485 12.0005Z" fill="white" stroke="white" stroke-width="24"/>
<path d="M150.939 131.885L156.534 139.262L165.088 135.722C194.193 123.679 226.27 117 260 117C393.49 117 501 221.477 501 349.5C501 477.523 393.49 582 260 582C126.51 582 19 477.523 19 349.5C19 318.59 25.2461 289.111 36.5833 262.152L38.1308 258.472L37.1656 254.598C21.2528 190.742 12.2512 134.314 12.1277 92.4021C12.0657 71.3865 14.247 54.8206 18.3983 43.0218C22.3202 31.8747 27.4313 26.4156 32.7348 24.1235C38.7385 23.3591 50.206 26.0179 69.8408 41.8567C89.9783 58.101 116.417 86.3693 150.939 131.885Z" fill="#1E1F20" stroke="white" stroke-width="24"/>
</svg>
