<svg width="520" height="582" viewBox="0 0 520 582" fill="none" xmlns="http://www.w3.org/2000/svg">
<path d="M485 0.000549218C540 0.5 519 148.5 494.5 246C491.797 256.757 453 188.5 453 188.5L413.5 151.5C413.5 151.5 349.525 125.404 359 113.001C420.5 32.5005 461.493 -0.212924 485 0.000549218Z" fill="black"/>
<path d="M36.5833 250.152L38.1308 246.472L37.1655 242.598C21.2528 178.742 12.2512 122.314 12.1276 80.4021C12.0657 59.3865 14.247 42.8206 18.3982 31.0218C22.3202 19.8747 27.4313 14.4156 32.7347 12.1235C38.7385 11.3591 50.206 14.0179 69.8407 29.8567C89.9783 46.101 116.417 74.3693 150.939 119.885L156.534 127.262L165.088 123.722C194.193 111.679 226.27 105 260 105C393.49 105 501 209.477 501 337.5C501 465.523 393.49 570 260 570C126.51 570 19 465.523 19 337.5C19 306.59 25.2461 277.111 36.5833 250.152Z" fill="white" stroke="black" stroke-width="24"/>
</svg>
