<svg width="119" height="200" viewBox="0 0 119 200" fill="none" xmlns="http://www.w3.org/2000/svg">
<path fill-rule="evenodd" clip-rule="evenodd" d="M102.44 106.97C96.0897 111.37 92.5197 114.93 92.5197 114.93C92.5397 114.97 95.4197 115.8 98.3697 120.06C99.9697 122.37 103.03 129.1 105.99 134.25C111.1 143.17 116.34 151.22 116.34 151.22C116.34 151.22 112.44 156.13 109.26 157.61C106.57 158.86 101.57 159.84 101.57 159.84C101.57 159.84 99.2897 157.65 97.9997 155.41C96.1397 152.17 91.2197 143.31 87.8197 140.09C89.6297 148.14 93.6297 165.96 93.8997 167.97C94.2497 170.56 92.3297 171.32 90.9797 171.84C89.8197 172.28 88.1497 172.62 86.1497 172.87C86.2597 174.63 86.4397 177.26 86.6997 179.84C87.0897 183.76 88.9697 189.09 88.9697 189.09C88.9697 189.09 87.8697 188.77 82.1897 189.47C76.1197 190.22 73.0197 191.11 73.0197 191.11C73.0197 191.11 69.9197 180.74 66.3897 174.1C66.2497 173.84 66.0797 173.6 65.8897 173.38C63.3397 173.31 61.0097 173.2 59.1397 173.1C57.2697 173.21 54.9497 173.31 52.3897 173.38C52.1997 173.6 52.0397 173.85 51.8897 174.1C48.3497 180.73 45.2597 191.11 45.2597 191.11C45.2597 191.11 42.1597 190.21 36.0797 189.47C30.3897 188.77 29.2997 189.09 29.2997 189.09C29.2997 189.09 31.1797 183.76 31.5697 179.84C31.8297 177.25 32.0097 174.62 32.1197 172.87C30.1197 172.62 28.4497 172.29 27.2897 171.84C25.9397 171.33 24.0297 170.56 24.3697 167.97C24.6397 165.97 28.6297 148.14 30.4497 140.09C27.0497 143.31 22.1297 152.17 20.2697 155.41C18.9797 157.65 16.6997 159.84 16.6997 159.84C16.6997 159.84 11.6997 158.86 9.00969 157.61C5.82969 156.14 1.92969 151.22 1.92969 151.22C1.92969 151.22 7.16969 143.17 12.2797 134.25C15.2297 129.1 18.2997 122.37 19.8897 120.06C22.8397 115.8 25.7197 114.97 25.7397 114.93C25.7397 114.93 22.1697 111.37 15.8197 106.97C11.5197 104 7.46969 102.2 5.42969 97.2703C1.19969 87.1003 2.01969 71.7503 2.36969 62.3103C2.88969 48.3103 10.0097 23.4103 18.8097 15.2603C27.2897 7.37027 43.2797 0.780273 58.5797 0.780273C58.7597 0.780273 58.9497 0.800273 59.1197 0.850273C59.2997 0.800273 59.4797 0.780273 59.6697 0.780273C74.9697 0.780273 90.9597 7.37027 99.4597 15.2503C108.26 23.4103 115.38 48.3003 115.9 62.3003C116.25 71.7303 117.07 87.0903 112.84 97.2603C110.79 102.19 106.74 103.99 102.45 106.96L102.44 106.97Z" fill="#404040"/>
<path fill-rule="evenodd" clip-rule="evenodd" d="M92.0399 114.941L92.8199 115.851C92.8199 115.851 91.9399 118.361 90.0399 119.511C88.1399 120.661 84.6499 121.361 81.9699 121.191C77.5099 120.921 74.7699 119.531 74.7699 119.531C74.7699 119.531 81.7899 118.521 86.1599 117.321C88.1399 116.781 92.0399 114.931 92.0399 114.931V114.941ZM92.2299 145.231L90.3699 136.021L89.5599 131.701L87.5799 136.681L87.3999 139.421L92.2299 145.221V145.231ZM25.9499 114.941L25.1699 115.851C25.1699 115.851 26.0499 118.361 27.9499 119.511C29.8499 120.661 33.3399 121.361 36.0199 121.191C40.4799 120.921 43.2199 119.531 43.2199 119.531C43.2199 119.531 36.1999 118.521 31.8299 117.321C29.8499 116.781 25.9599 114.931 25.9599 114.931L25.9499 114.941ZM25.7599 145.231L27.6199 136.021L28.4299 131.701L30.4099 136.681L30.5899 139.421L25.7599 145.221V145.231Z" fill="#0F0F0F"/>
<path fill-rule="evenodd" clip-rule="evenodd" d="M117.51 161.68C116.62 162.88 114.32 164.04 113.29 163.52C112.66 165.46 108.18 166.16 107.05 163.21C105.3 164.8 103.88 163.29 103.43 162.02C102.76 160.11 102.43 158.54 102.82 157.1C103.68 156.06 104.76 154.83 107.53 153.62C110.3 152.41 111.14 152.18 113.19 152C114.99 151.84 115.83 153.58 117.33 155.45C118.83 157.32 118.4 160.49 117.51 161.69V161.68ZM73.96 113.95C65.95 114.71 61.45 115.12 59.64 115.28C59.64 115.33 59.64 115.36 59.64 115.36C59.64 115.36 59.49 115.35 59.17 115.32C58.85 115.35 58.7 115.36 58.7 115.36C58.7 115.36 58.7 115.33 58.7 115.28C56.89 115.12 52.39 114.71 44.38 113.95C33.08 112.88 9.61002 84.5803 11.53 55.7803C12.67 38.7003 30.45 17.4103 58.98 17.2803C59.11 17.3003 59.24 17.3003 59.36 17.2803C87.89 17.4103 105.67 38.7003 106.81 55.7803C108.73 84.5703 85.27 112.87 73.96 113.95ZM14.89 162.01C14.44 163.28 13.05 164.78 11.27 163.2C10.14 166.15 5.65002 165.45 5.03002 163.51C3.99002 164.03 1.69002 162.87 0.810016 161.67C-0.0699841 160.47 -0.509984 157.3 0.990016 155.43C2.49002 153.56 3.33002 151.83 5.13002 151.98C7.18002 152.16 8.02002 152.39 10.79 153.6C13.56 154.81 14.63 156.04 15.5 157.08C15.89 158.52 15.57 160.09 14.89 162V162.01ZM24.83 167.98C24.83 167.98 26.21 169.02 27.6 169.71C28.99 170.4 37.8 171.78 45.58 171.96C50.85 172.08 55.52 172.27 57.98 172.39L58.12 117.04L60.02 116.97L60.09 172.4C62.48 172.29 67.29 172.08 72.75 171.96C80.53 171.79 89.35 170.4 90.73 169.71C92.11 169.02 93.5 167.98 93.5 167.98C93.5 167.98 95.57 168.67 92.98 170.57C90.39 172.47 71.54 173.51 67.4 173.68C63.92 173.82 60.26 173.72 59.17 173.68C58.08 173.72 54.42 173.82 50.94 173.68C46.79 173.51 27.95 172.47 25.36 170.57C22.77 168.67 24.84 167.98 24.84 167.98H24.83ZM29.4 190.2C29.77 189.65 30.09 189.07 30.37 188.47C30.37 188.47 33.56 188.52 36.82 188.74C40.08 188.96 44.74 190.2 44.74 190.2C44.55 190.72 44.48 191.28 44.52 191.83C44.59 192.72 45.04 195.58 44.81 197.44C44.29 198.4 39.55 199.39 35.78 199.54C32 199.69 26.3 199.69 25.41 199.1C24.52 198.51 24 196.73 24.22 194.95C24.44 193.17 28.89 190.95 29.41 190.21L29.4 190.2ZM73.57 190.2C73.57 190.2 78.23 188.96 81.49 188.74C84.75 188.52 87.94 188.47 87.94 188.47C88.22 189.07 88.54 189.65 88.91 190.2C89.43 190.94 93.87 193.16 94.1 194.94C94.33 196.72 93.8 198.5 92.91 199.09C92.02 199.68 86.32 199.68 82.54 199.53C78.76 199.38 74.02 198.4 73.51 197.43C73.28 195.57 73.73 192.71 73.8 191.82C73.84 191.27 73.76 190.71 73.58 190.19L73.57 190.2Z" fill="#010101"/>
<path fill-rule="evenodd" clip-rule="evenodd" d="M75.6503 75.1006L78.0703 77.0006L89.3103 77.5206L76.0003 94.4606L72.2003 87.8906L75.6603 75.1006H75.6503ZM42.6903 75.1006L40.2703 77.0006L29.0303 77.5206L42.3403 94.4606L46.1403 87.8906L42.6803 75.1006H42.6903Z" fill="#232323"/>
<path fill-rule="evenodd" clip-rule="evenodd" d="M65.3803 63.6407L69.0104 62.7807L72.9903 66.2407L72.8204 71.2507L69.3604 83.8707L67.1104 82.4907L65.3803 63.6507V63.6407ZM77.3103 39.4407L70.2204 52.5807L80.4203 52.2307L90.4503 48.9507L89.4104 45.8407L77.3103 39.4407ZM58.9904 36.6707L59.1304 28.2007L70.4004 27.6807L77.6604 30.1007L75.5903 36.3207L58.9904 36.6707ZM81.1204 31.3107L78.3503 36.6707L81.4604 37.7107L90.1003 43.9307L92.5203 48.4207L98.9203 47.2107L91.1404 38.2207L81.1104 31.3107H81.1204ZM93.5704 58.9707H96.1604L96.6804 65.3707L94.4304 69.0007L90.8004 64.1607L93.5704 58.9707ZM53.1504 63.6407L49.5204 62.7807L45.5404 66.2407L45.7104 71.2507L49.1703 83.8707L51.4203 82.4907L53.1504 63.6507V63.6407ZM41.2204 39.4407L48.3104 52.5807L38.1104 52.2307L28.0804 48.9507L29.1204 45.8407L41.2204 39.4407ZM59.5404 36.6707L59.5004 28.2007L48.1304 27.6807L40.8703 30.1007L42.9403 36.3207L59.5404 36.6707ZM37.4104 31.3107L40.1804 36.6707L37.0704 37.7107L28.4304 43.9307L26.0104 48.4207L19.6104 47.2107L27.3904 38.2207L37.4203 31.3107H37.4104ZM24.9604 58.9707H22.3704L21.8504 65.3707L24.1004 69.0007L27.7304 64.1607L24.9604 58.9707Z" fill="#424242"/>
<path fill-rule="evenodd" clip-rule="evenodd" d="M89.4096 76.2599L78.8596 75.5699L75.3996 74.0099L76.6096 67.4399L88.3696 65.0199L92.8596 70.5499L89.3996 76.2499L89.4096 76.2599ZM62.0996 91.6399L63.3096 87.8399L63.6596 86.2799L67.1196 85.4199L70.7496 88.5299L75.0696 96.4799L70.9196 93.0199L62.0996 91.6399ZM60.0096 53.4099V53.4399L59.4096 53.4299H58.8696V53.4199L51.9396 53.2699L43.8196 38.9199L59.0996 39.0899L74.3796 38.9199L66.2596 53.2699L60.0196 53.4199L60.0096 53.4099ZM51.0696 85.4199L54.5296 86.2799L54.8796 87.8399L56.0896 91.6399L47.2696 93.0199L43.1196 96.4799L47.4396 88.5299L51.0696 85.4199ZM28.7696 76.2599L25.3096 70.5599L29.7996 65.0299L41.5496 67.4499L42.7596 74.0199L39.2996 75.5799L28.7496 76.2699L28.7696 76.2599ZM62.9696 66.5799L63.1396 79.0299L61.9296 81.6199L59.3696 81.7599V81.7899L59.0896 81.7699L58.8196 81.7899V81.7599L56.2596 81.6199L55.0496 79.0299L55.2196 66.5799L56.4296 65.3699L58.6496 65.1199V65.0199L59.0996 65.0699L59.5496 65.0199V65.1199L61.7596 65.3699L62.9696 66.5799ZM59.3696 99.4299H70.7496L66.2596 105.31L59.2296 106.72V106.69L51.9496 105.31L47.4596 99.4299H59.3896H59.3696Z" fill="#727272"/>
</svg>
