<svg width="123" height="199" viewBox="0 0 123 199" fill="none" xmlns="http://www.w3.org/2000/svg">
<path fill-rule="evenodd" clip-rule="evenodd" d="M104.83 106.01C98.4897 110.4 94.9297 113.95 94.9297 113.95C94.9297 113.95 95.9697 114.21 99.3297 116.8C102.7 119.39 115.64 138.03 116.42 140.62C117.2 143.21 115.38 146.06 115.13 147.35C114.88 148.64 116.68 150.97 116.68 150.97C116.68 150.97 113.64 152.35 110.47 153.82C107.78 155.07 105.29 156.41 105.29 156.41L102.96 152.27C102.96 152.27 96.7697 153.77 93.2597 148.05C91.5097 149.82 91.3097 151.24 91.3097 151.24C91.3097 151.24 90.7897 153.05 92.0897 154.35C93.3897 155.65 96.5597 168.53 95.7497 174.71C95.0197 180.24 93.1497 181.54 90.8097 182.57C90.5797 184.35 91.0897 187.75 91.0897 187.75C91.0897 187.75 90.2897 187.67 84.6097 188.37C78.5497 189.11 75.7997 189.89 75.7997 189.89C75.7997 189.89 76.0597 187.82 75.0197 187.04C73.9797 186.26 70.3597 185.75 69.0697 183.93C67.7797 182.11 66.4797 175.13 64.1497 174.61C63.2497 174.41 62.4297 174.25 61.7597 174.13C61.0897 174.25 60.2697 174.41 59.3697 174.61C57.0397 175.13 55.7497 182.12 54.4497 183.93C53.1497 185.74 49.5297 186.26 48.4997 187.04C47.4697 187.82 47.7197 189.89 47.7197 189.89C47.7197 189.89 44.9697 189.11 38.9097 188.37C33.2297 187.67 32.4297 187.75 32.4297 187.75C32.4297 187.75 32.9297 184.35 32.7097 182.57C30.3797 181.54 28.4997 180.25 27.7697 174.71C26.9497 168.53 30.1297 155.64 31.4297 154.35C32.7297 153.06 32.2097 151.24 32.2097 151.24C32.2097 151.24 31.5497 149.82 29.7897 148.05C26.2797 153.78 20.5597 152.27 20.5597 152.27L18.2297 156.41C18.2297 156.41 15.7397 155.07 13.0497 153.82C9.87971 152.35 6.83971 150.97 6.83971 150.97C6.83971 150.97 8.64973 148.64 8.38973 147.35C8.12973 146.06 6.31972 143.21 7.09972 140.62C7.87972 138.03 20.8197 119.39 24.1897 116.8C27.5597 114.21 28.5897 113.95 28.5897 113.95C28.5897 113.95 25.0297 110.39 18.6897 106.01C5.54972 96.92 0.489728 80.2 1.00973 66.22C1.52973 52.24 14.3597 24.9 21.8697 16.09C29.3797 7.28 46.0897 0 61.3597 0C61.6097 0.05 61.8697 0.05 62.1297 0C77.3997 0 94.1497 7.3 101.66 16.1C109.17 24.9 122 52.25 122.52 66.23C123.04 80.21 117.98 96.92 104.84 106.02L104.83 106.01Z" fill="#D41857"/>
<path fill-rule="evenodd" clip-rule="evenodd" d="M91.2093 117.73L83.3093 117.99L91.4593 113.85L94.4393 113.98L95.2193 114.89L91.2093 117.74V117.73ZM88.2593 125.31L88.6193 130.25L87.0793 130.85L87.3293 138.03L85.3093 139.76L75.9193 139.98L73.8493 137.98L73.4393 131.74L71.9693 131.42L71.5293 126.36L72.8693 124.82L86.5193 123.83L88.2593 125.29V125.31ZM75.3193 137.56L76.8693 138.74L85.1293 138.34L85.9293 137.44L85.7093 131.39L80.7193 133.35L74.7193 132.03L75.3193 137.55V137.56ZM74.3493 125.94L73.2793 127.03L73.6293 130.61L80.5893 131.97L86.8693 129.78L86.5893 126.29L85.2093 125.26L74.3593 125.96L74.3493 125.94ZM28.5293 114.88L29.3093 113.97L32.2893 113.84L40.4393 117.98L32.5393 117.72L28.5293 114.87V114.88ZM30.8793 139.03L32.6893 144.72L31.1393 148.09L28.9393 147.44L30.6193 142.52L30.8793 139.03ZM39.0893 184.07C39.0893 184.07 37.2793 184.98 35.5993 184.72C33.9193 184.46 33.1393 182.52 33.1393 182.52L35.4693 181.74L39.0893 184.07ZM90.6193 182.52C90.6193 182.52 89.8393 184.46 88.1593 184.72C86.4793 184.98 84.6693 184.07 84.6693 184.07L88.2893 181.74L90.6193 182.52ZM93.1393 142.53L94.8193 147.45L92.6193 148.1L91.0693 144.73L92.8793 139.04L93.1393 142.53Z" fill="#A50A3E"/>
<path fill-rule="evenodd" clip-rule="evenodd" d="M119.869 160.64C118.989 161.84 116.689 162.99 115.649 162.47C115.019 164.41 110.549 165.11 109.419 162.16C107.679 163.75 106.259 162.24 105.809 160.97C105.139 159.07 104.819 157.49 105.199 156.06C106.059 155.02 107.139 153.8 109.899 152.59C112.659 151.38 113.499 151.15 115.549 150.97C117.349 150.81 118.189 152.54 119.679 154.41C121.169 156.28 120.739 159.44 119.859 160.64H119.869ZM77.5695 113.07C68.6695 114.78 63.1894 114.57 61.6094 114.45C60.0294 114.57 54.5495 114.77 45.6495 113.07C26.4995 109.4 16.4795 97.8304 18.3995 69.0804C19.5395 52.0304 36.5594 20.0504 61.5494 18.8604C61.5594 18.8604 61.5694 18.8604 61.5794 18.8604C61.5894 18.8604 61.5994 18.8604 61.6094 18.8604C61.6194 18.8604 61.6295 18.8604 61.6395 18.8604C61.6395 18.8604 61.6595 18.8604 61.6695 18.8604C86.6495 20.0604 103.679 52.0304 104.819 69.0804C106.739 97.8304 96.7195 109.39 77.5695 113.07ZM17.4195 160.98C16.9695 162.25 15.5895 163.75 13.8095 162.17C12.6795 165.12 8.19945 164.42 7.57945 162.48C6.53945 163 4.24944 161.84 3.35944 160.65C2.46944 159.46 2.03947 156.29 3.53947 154.42C5.03947 152.55 5.87947 150.82 7.66947 150.98C9.71947 151.16 10.5595 151.39 13.3195 152.6C16.0795 153.81 17.1594 155.03 18.0194 156.07C18.4094 157.51 18.0895 159.08 17.4095 160.98H17.4195ZM37.8795 149.18V155.65C35.2595 155.2 33.9095 154.91 33.9095 154.91L33.9695 148.77C33.9695 148.77 35.5095 148.95 37.8795 149.18ZM41.1295 156.17L41.1094 149.48C42.1794 149.58 43.3094 149.67 44.4894 149.76C45.2094 149.82 46.1995 149.88 47.3395 149.94V157.04C46.9295 156.99 46.5195 156.93 46.1395 156.88C44.2495 156.62 42.5795 156.38 41.1195 156.16L41.1295 156.17ZM31.9095 189.12C32.2795 188.57 32.5995 187.99 32.8795 187.4C32.8795 187.4 36.0695 187.45 39.3195 187.67C42.5695 187.89 47.2195 189.13 47.2195 189.13C47.0295 189.65 46.9595 190.21 46.9995 190.76C47.0695 191.65 47.5195 194.5 47.2895 196.36C46.7695 197.32 42.0394 198.31 38.2694 198.45C34.4994 198.59 28.7995 198.6 27.9095 198.01C27.0195 197.42 26.4995 195.64 26.7295 193.87C26.9595 192.1 31.3895 189.88 31.9095 189.14V189.12ZM60.2195 116.83L63.4695 116.53L63.0295 148.85L60.4395 148.78L60.2195 116.83ZM71.2994 150.18V157.58C68.5794 157.87 65.6695 158.12 63.0895 158.26C63.0795 158.29 63.0694 158.33 63.0494 158.36C62.5894 158.36 62.1094 158.34 61.6094 158.33C61.1094 158.35 60.6295 158.36 60.1695 158.36C60.1595 158.33 60.1495 158.29 60.1295 158.26C57.5495 158.12 54.6395 157.87 51.9195 157.58V150.18C55.6595 150.36 59.6195 150.52 61.5995 150.6C63.5795 150.52 67.5395 150.35 71.2795 150.18H71.2994ZM75.8895 157.05V149.95C77.0295 149.89 78.0194 149.82 78.7394 149.77C79.9194 149.68 81.0495 149.58 82.1195 149.49L82.0995 156.18C80.6395 156.4 78.9694 156.65 77.0794 156.9C76.6994 156.95 76.2895 157 75.8795 157.06L75.8895 157.05ZM89.2595 148.77L89.3195 154.91C89.3195 154.91 87.9795 155.2 85.3495 155.65V149.18C87.7095 148.95 89.2595 148.77 89.2595 148.77ZM76.0095 189.12C76.0095 189.12 80.6595 187.89 83.9095 187.66C87.1595 187.43 90.3494 187.39 90.3494 187.39C90.6294 187.99 90.9495 188.57 91.3195 189.11C91.8395 189.85 96.2795 192.07 96.4995 193.84C96.7195 195.61 96.1995 197.39 95.3195 197.98C94.4395 198.57 88.7394 198.57 84.9594 198.42C81.1894 198.27 76.4595 197.29 75.9395 196.33C75.7095 194.48 76.1595 191.62 76.2295 190.73C76.2695 190.18 76.1895 189.62 76.0095 189.1V189.12Z" fill="#010101"/>
<path fill-rule="evenodd" clip-rule="evenodd" d="M100.71 71.8896C93.3402 73.6496 81.0702 76.4196 63.4002 76.5996L62.9002 112.85L60.3102 113.14L59.8102 76.5896C42.4302 76.3696 30.3302 73.6296 23.0302 71.8896C20.3002 71.2396 20.2702 69.0296 22.3402 69.2996C23.5602 69.4596 33.1602 71.7996 43.3402 73.0596C49.5102 73.8196 55.7402 73.8896 60.9902 73.8996H62.7402C67.9902 73.8996 74.2202 73.8296 80.3902 73.0596C90.5702 71.7996 100.18 69.4596 101.39 69.2996C103.46 69.0296 103.43 71.2396 100.7 71.8896H100.71ZM62.0501 72.0596H61.7102C51.6902 72.0296 40.0702 69.2496 40.0702 69.2496C40.0702 69.2496 34.6102 62.3996 35.8202 48.2496C37.0202 34.1396 52.2502 27.9696 61.7302 27.5996C61.7502 27.5996 61.7702 27.5996 61.7902 27.5996C61.7902 27.5996 61.7901 27.5996 61.8001 27.5996C61.8301 27.5996 61.8502 27.5996 61.8802 27.5996C61.9102 27.5996 61.9302 27.5996 61.9602 27.5996C61.9602 27.5996 61.9602 27.5996 61.9702 27.5996C61.9902 27.5996 62.0102 27.5996 62.0302 27.5996C71.5102 27.9796 86.7302 34.1396 87.9402 48.2496C89.1502 62.3996 83.6902 69.2496 83.6902 69.2496C83.6902 69.2496 72.0701 72.0296 62.0501 72.0596Z" fill="#333333"/>
<path fill-rule="evenodd" clip-rule="evenodd" d="M61.8301 28.7002C73.5701 28.7002 83.0801 38.2202 83.0801 49.9502C83.0801 61.6802 73.5601 71.2002 61.8301 71.2002C50.1001 71.2002 40.5801 61.6802 40.5801 49.9502C40.5801 38.2202 50.0901 28.7002 61.8301 28.7002ZM61.8301 33.7302C70.7901 33.7302 78.0501 40.9902 78.0501 49.9502C78.0501 58.9102 70.7901 66.1702 61.8301 66.1702C52.8701 66.1702 45.6101 58.9102 45.6101 49.9502C45.6101 40.9902 52.8701 33.7302 61.8301 33.7302Z" fill="white"/>
</svg>
